<svg width="30" height="30" viewBox="0 0 30 30" fill="none" xmlns="http://www.w3.org/2000/svg">
<path fill-rule="evenodd" clip-rule="evenodd" d="M15 30C23.2843 30 30 23.2843 30 15C30 6.71573 23.2843 0 15 0C6.71573 0 0 6.71573 0 15C0 23.2843 6.71573 30 15 30Z" fill="#FCB040"/>
<path fill-rule="evenodd" clip-rule="evenodd" d="M13.1135 11.777C13.1135 12.0581 12.8853 12.2865 12.6054 12.2865H10.2851V14.6041C10.2851 14.7297 10.2392 14.8446 10.1635 14.9338C10.0716 15.0432 9.93376 15.1135 9.77836 15.1135C9.49728 15.1135 9.2689 14.8851 9.2689 14.6041V12.2865H6.95012C6.67025 12.2865 6.44336 12.0581 6.44336 11.777C6.44336 11.4973 6.67025 11.2689 6.95012 11.2689H9.2689V8.95135C9.2689 8.66892 9.49728 8.44189 9.77836 8.44189C10.0582 8.44189 10.2851 8.66892 10.2851 8.95135V11.2689H12.6054C12.6757 11.2689 12.7432 11.2838 12.8027 11.3081C12.9851 11.3865 13.1135 11.5676 13.1135 11.777Z" fill="#FEFEFE"/>
<path fill-rule="evenodd" clip-rule="evenodd" d="M13.6973 12.2959C13.5392 13.5014 12.8365 14.5365 11.8459 15.1473C11.8459 15.15 11.8459 15.15 11.8446 15.1486C11.2432 15.5189 10.5351 15.7324 9.77838 15.7324C9.45135 15.7324 9.13365 15.6932 8.82959 15.6162C8.82838 15.6176 8.82838 15.6176 8.82838 15.6162C7.10541 15.1905 5.82284 13.6311 5.82284 11.777C5.82284 9.5973 7.5973 7.82297 9.77838 7.82297C11.5041 7.82297 12.9757 8.93513 13.5122 10.4811C13.6553 10.8865 13.7324 11.323 13.7324 11.777C13.7324 11.9527 13.7203 12.127 13.6973 12.2959ZM14.4054 10.5878C13.8757 8.52838 12.0027 7 9.77838 7C7.14324 7 5 9.14324 5 11.777C5 14.4122 7.14324 16.5555 9.77838 16.5555C10.0568 16.5555 10.327 16.5311 10.5919 16.4851C10.5932 16.4865 10.5946 16.4851 10.5946 16.4851C12.1716 16.2122 13.4864 15.1635 14.1297 13.7473C14.2959 13.3824 14.4176 12.9932 14.4865 12.5865C14.5324 12.323 14.5554 12.0527 14.5554 11.777C14.5554 11.3676 14.5041 10.9689 14.4054 10.5878Z" fill="#FEFEFE"/>
<mask id="mask0" mask-type="alpha" maskUnits="userSpaceOnUse" x="13" y="13" width="12" height="4">
<path fill-rule="evenodd" clip-rule="evenodd" d="M13.9419 13.5706H24.9095V16.4165H13.9419V13.5706Z" fill="white"/>
</mask>
<g mask="url(#mask0)">
<path fill-rule="evenodd" clip-rule="evenodd" d="M24.8203 14.5719C24.1622 15.7097 22.9366 16.4165 21.623 16.4165C20.6311 16.4165 19.6892 16.0124 19.0041 15.3246C18.3191 16.0124 17.377 16.4165 16.3851 16.4165C15.4743 16.4165 14.6068 16.0773 13.9419 15.4895C14.242 15.1557 14.5027 14.7868 14.7176 14.3908C15.1542 14.8273 15.7541 15.0841 16.3851 15.0841C17.2243 15.0841 18.0068 14.6314 18.427 13.9043C18.5459 13.6976 18.7662 13.5706 19.0041 13.5706C19.242 13.5706 19.4623 13.6976 19.5811 13.9043C20.0014 14.6314 20.7853 15.0841 21.6245 15.0841C22.4623 15.0841 23.2446 14.6314 23.6662 13.9043C23.85 13.5854 24.2581 13.476 24.577 13.6611C24.8947 13.8449 25.0041 14.253 24.8203 14.5719Z" fill="#FEFEFE"/>
</g>
<mask id="mask1" mask-type="alpha" maskUnits="userSpaceOnUse" x="15" y="10" width="10" height="4">
<path fill-rule="evenodd" clip-rule="evenodd" d="M15.277 10.22H24.9095V13.0649H15.277V10.22Z" fill="white"/>
</mask>
<g mask="url(#mask1)">
<path fill-rule="evenodd" clip-rule="evenodd" d="M24.8202 11.2203C24.1621 12.3581 22.9366 13.0649 21.6229 13.0649C20.631 13.0649 19.6891 12.6622 19.004 11.973C18.319 12.6622 17.377 13.0649 16.3851 13.0649C16.0055 13.0649 15.6325 13.0054 15.277 12.8933C15.3677 12.4906 15.4148 12.0716 15.4148 11.6419C15.4148 11.6014 15.4148 11.5595 15.4136 11.5189C15.7148 11.6581 16.0447 11.7324 16.3851 11.7324C17.2243 11.7324 18.0067 11.2811 18.427 10.5527C18.5459 10.3473 18.7662 10.2203 19.004 10.2203C19.242 10.2203 19.4622 10.3473 19.581 10.5527C20.0013 11.2797 20.7852 11.7324 21.6244 11.7324C22.4622 11.7324 23.2445 11.2797 23.6662 10.5527C23.8499 10.2338 24.2581 10.1257 24.577 10.3095C24.8947 10.4933 25.004 10.9014 24.8202 11.2203Z" fill="#FEFEFE"/>
</g>
<path fill-rule="evenodd" clip-rule="evenodd" d="M24.8202 17.9216C24.1621 19.0608 22.9366 19.7676 21.6244 19.7676C20.631 19.7676 19.6891 19.3635 19.004 18.6757C18.319 19.3635 17.377 19.7676 16.3851 19.7676C15.3932 19.7676 14.4514 19.3635 13.7648 18.6757C13.081 19.3635 12.1378 19.7676 11.146 19.7676C9.83236 19.7676 8.60804 19.0608 7.94858 17.9216C7.80804 17.6784 7.83912 17.3851 8.00277 17.177C8.38371 17.2905 8.78236 17.3662 9.19317 17.3987H9.19452C9.63115 18.0419 10.3636 18.4338 11.146 18.4338C11.9852 18.4338 12.7676 17.9824 13.1878 17.2541C13.2472 17.1514 13.3324 17.0676 13.4324 17.0108C13.531 16.9541 13.646 16.9216 13.7648 16.9216C14.0026 16.9216 14.2229 17.0487 14.3418 17.2541C14.7634 17.9824 15.5459 18.4351 16.3851 18.4351C17.2243 18.4351 18.0067 17.9824 18.427 17.2554C18.5459 17.0487 18.7661 16.9216 19.004 16.9216C19.242 16.9216 19.4622 17.0487 19.581 17.2554C20.0013 17.9824 20.7837 18.4351 21.6229 18.4351C22.4622 18.4351 23.2445 17.9824 23.6661 17.2554C23.8499 16.9365 24.258 16.827 24.5756 17.0108C24.8947 17.196 25.004 17.6027 24.8202 17.9216Z" fill="#FEFEFE"/>
<mask id="mask2" mask-type="alpha" maskUnits="userSpaceOnUse" x="7" y="20" width="18" height="4">
<path fill-rule="evenodd" clip-rule="evenodd" d="M7.85968 20.2729H24.9094V23.1188H7.85968V20.2729Z" fill="white"/>
</mask>
<g mask="url(#mask2)">
<path fill-rule="evenodd" clip-rule="evenodd" d="M24.5762 20.3626C24.2577 20.1784 23.8499 20.2872 23.6657 20.606C23.245 21.3337 22.4623 21.7857 21.6234 21.7857C20.7843 21.7857 20.0015 21.3337 19.5809 20.606C19.4618 20.4001 19.2418 20.273 19.0039 20.2732C18.7658 20.2732 18.5459 20.4001 18.4268 20.6063C18.0065 21.3338 17.2241 21.7857 16.3849 21.7857C15.5461 21.7857 14.7632 21.3337 14.342 20.6057C14.2228 20.3998 14.003 20.273 13.7651 20.273H13.765C13.527 20.273 13.3072 20.3999 13.1882 20.606C12.7674 21.3337 11.9849 21.7857 11.1458 21.7857C10.3068 21.7857 9.52392 21.3336 9.10337 20.606C8.91919 20.2872 8.51135 20.1783 8.19283 20.3626C7.87405 20.5468 7.765 20.9545 7.94932 21.2732C8.60743 22.4117 9.83229 23.1188 11.1459 23.1188C12.1384 23.1188 13.0804 22.7149 13.7655 22.0264C14.4507 22.7151 15.3926 23.1188 16.3851 23.1188C17.3776 23.1188 18.3195 22.7151 19.0043 22.0265C19.6893 22.7151 20.6312 23.1188 21.6236 23.1188C22.937 23.1188 24.1619 22.4117 24.8201 21.2732C25.0039 20.9545 24.8949 20.5468 24.5762 20.3626Z" fill="#FEFEFE"/>
</g>
</svg>
