<svg width="25" height="21" viewBox="0 0 25 21" fill="none" xmlns="http://www.w3.org/2000/svg">
<path fill-rule="evenodd" clip-rule="evenodd" d="M10.1419 5.97141C10.1419 6.32276 9.85656 6.60823 9.50673 6.60823H6.6064V9.50519C6.6064 9.66229 6.54896 9.80587 6.45437 9.91736C6.3395 10.0542 6.16721 10.142 5.97295 10.142C5.6216 10.142 5.33612 9.85654 5.33612 9.50519V6.60823H2.43765C2.08781 6.60823 1.8042 6.32276 1.8042 5.97141C1.8042 5.62175 2.08781 5.33627 2.43765 5.33627H5.33612V2.43931C5.33612 2.08627 5.6216 1.80249 5.97295 1.80249C6.32278 1.80249 6.6064 2.08627 6.6064 2.43931V5.33627H9.50673C9.59457 5.33627 9.67903 5.35486 9.75335 5.38526C9.98139 5.48323 10.1419 5.70958 10.1419 5.97141Z" fill="#FEFEFE"/>
<path fill-rule="evenodd" clip-rule="evenodd" d="M10.8716 6.61993C10.674 8.12669 9.79561 9.42061 8.55743 10.1841C8.55743 10.1875 8.55743 10.1875 8.55574 10.1858C7.80405 10.6486 6.91892 10.9155 5.97297 10.9155C5.56419 10.9155 5.16706 10.8666 4.78699 10.7703C4.78547 10.772 4.78547 10.772 4.78547 10.7703C2.63176 10.2382 1.02855 8.28885 1.02855 5.97128C1.02855 3.24662 3.24662 1.02872 5.97297 1.02872C8.13007 1.02872 9.96959 2.41892 10.6402 4.35135C10.8191 4.85811 10.9155 5.40372 10.9155 5.97128C10.9155 6.19088 10.9003 6.40878 10.8716 6.61993ZM11.7568 4.4848C11.0946 1.91047 8.75338 0 5.97297 0C2.67905 0 0 2.67905 0 5.97128C0 9.2652 2.67905 11.9444 5.97297 11.9444C6.32095 11.9444 6.65878 11.9139 6.98986 11.8564C6.99155 11.8581 6.99324 11.8564 6.99324 11.8564C8.96453 11.5152 10.6079 10.2044 11.4122 8.43412C11.6199 7.97804 11.772 7.49155 11.8581 6.98311C11.9155 6.65372 11.9443 6.31588 11.9443 5.97128C11.9443 5.45946 11.8801 4.96115 11.7568 4.4848Z" fill="#FEFEFE"/>
<mask id="mask0" mask-type="alpha" maskUnits="userSpaceOnUse" x="11" y="8" width="14" height="4">
<path fill-rule="evenodd" clip-rule="evenodd" d="M11.1773 8.21289H24.8868V11.7703H11.1773V8.21289Z" fill="white"/>
</mask>
<g mask="url(#mask0)">
<path fill-rule="evenodd" clip-rule="evenodd" d="M24.7753 9.46458C23.9526 10.8869 22.4207 11.7703 20.7787 11.7703C19.5388 11.7703 18.3614 11.2653 17.505 10.4055C16.6488 11.2653 15.4712 11.7703 14.2314 11.7703C13.0928 11.7703 12.0084 11.3463 11.1773 10.6115C11.5525 10.1943 11.8783 9.73316 12.1469 9.23823C12.6927 9.78384 13.4425 10.1048 14.2314 10.1048C15.2803 10.1048 16.2584 9.5389 16.7837 8.63012C16.9324 8.37167 17.2077 8.21289 17.505 8.21289C17.8025 8.21289 18.0778 8.37167 18.2263 8.63012C18.7516 9.5389 19.7315 10.1048 20.7805 10.1048C21.8278 10.1048 22.8057 9.5389 23.3327 8.63012C23.5624 8.23147 24.0726 8.09465 24.4712 8.32607C24.8684 8.5558 25.005 9.06593 24.7753 9.46458Z" fill="#FEFEFE"/>
</g>
<mask id="mask1" mask-type="alpha" maskUnits="userSpaceOnUse" x="12" y="4" width="13" height="4">
<path fill-rule="evenodd" clip-rule="evenodd" d="M12.8463 4.0249H24.8868V7.58103H12.8463V4.0249Z" fill="white"/>
</mask>
<g mask="url(#mask1)">
<path fill-rule="evenodd" clip-rule="evenodd" d="M24.7753 5.27529C23.9527 6.69759 22.4207 7.58103 20.7787 7.58103C19.5388 7.58103 18.3615 7.07765 17.505 6.21617C16.6488 7.07765 15.4713 7.58103 14.2314 7.58103C13.7569 7.58103 13.2907 7.50671 12.8463 7.36651C12.9596 6.86313 13.0185 6.33948 13.0185 5.80232C13.0185 5.75164 13.0185 5.69928 13.017 5.6486C13.3935 5.82259 13.8059 5.91549 14.2314 5.91549C15.2804 5.91549 16.2584 5.3513 16.7838 4.44083C16.9324 4.18407 17.2077 4.02529 17.505 4.02529C17.8025 4.02529 18.0778 4.18407 18.2263 4.44083C18.7517 5.34961 19.7316 5.91549 20.7805 5.91549C21.8278 5.91549 22.8057 5.34961 23.3327 4.44083C23.5625 4.04218 24.0726 3.90705 24.4713 4.13678C24.8684 4.36651 25.005 4.87664 24.7753 5.27529Z" fill="#FEFEFE"/>
</g>
<path fill-rule="evenodd" clip-rule="evenodd" d="M24.7753 13.6521C23.9527 15.0761 22.4208 15.9595 20.7805 15.9595C19.5388 15.9595 18.3615 15.4545 17.505 14.5947C16.6488 15.4545 15.4713 15.9595 14.2314 15.9595C12.9915 15.9595 11.8143 15.4545 10.9561 14.5947C10.1013 15.4545 8.92227 15.9595 7.68258 15.9595C6.04051 15.9595 4.51011 15.0761 3.68578 13.6521C3.51011 13.348 3.54896 12.9815 3.75352 12.7214C4.2297 12.8632 4.72801 12.9578 5.24153 12.9984H5.24322C5.78899 13.8024 6.70453 14.2923 7.68258 14.2923C8.73156 14.2923 9.7096 13.7281 10.2348 12.8176C10.3091 12.6893 10.4155 12.5845 10.5405 12.5136C10.6638 12.4426 10.8076 12.4021 10.9561 12.4021C11.2534 12.4021 11.5287 12.5609 11.6773 12.8176C12.2044 13.7281 13.1824 14.294 14.2314 14.294C15.2804 14.294 16.2584 13.7281 16.7838 12.8193C16.9324 12.5609 17.2077 12.4021 17.505 12.4021C17.8025 12.4021 18.0778 12.5609 18.2263 12.8193C18.7517 13.7281 19.7297 14.294 20.7787 14.294C21.8278 14.294 22.8057 13.7281 23.3327 12.8193C23.5625 12.4207 24.0726 12.2839 24.4696 12.5136C24.8684 12.745 25.005 13.2535 24.7753 13.6521Z" fill="#FEFEFE"/>
<mask id="mask2" mask-type="alpha" maskUnits="userSpaceOnUse" x="3" y="16" width="22" height="5">
<path fill-rule="evenodd" clip-rule="evenodd" d="M3.57458 16.5911H24.8867V20.1484H3.57458V16.5911Z" fill="white"/>
</mask>
<g mask="url(#mask2)">
<path fill-rule="evenodd" clip-rule="evenodd" d="M24.4703 16.7032C24.0721 16.4729 23.5623 16.6089 23.3321 17.0074C22.8062 17.917 21.8279 18.482 20.7792 18.482C19.7304 18.482 18.7518 17.917 18.2262 17.0074C18.0772 16.7499 17.8022 16.5912 17.5049 16.5913C17.2072 16.5913 16.9324 16.7499 16.7834 17.0077C16.2581 17.9172 15.28 18.482 14.2311 18.482C13.1826 18.482 12.204 17.917 11.6775 17.007C11.5285 16.7496 11.2537 16.5912 10.9564 16.5912H10.9562C10.6588 16.5912 10.3839 16.7498 10.2353 17.0074C9.70927 17.917 8.73106 18.482 7.68224 18.482C6.63343 18.482 5.65488 17.9168 5.1292 17.0074C4.89897 16.6089 4.38917 16.4728 3.99103 16.7032C3.59255 16.9334 3.45623 17.443 3.68664 17.8413C4.50927 19.2645 6.04035 20.1484 7.68241 20.1484C8.92295 20.1484 10.1005 19.6435 10.9569 18.7829C11.8133 19.6437 12.9907 20.1484 14.2314 20.1484C15.4719 20.1484 16.6493 19.6437 17.5054 18.7831C18.3616 19.6437 19.539 20.1484 20.7795 20.1484C22.4213 20.1484 23.9523 19.2645 24.7751 17.8413C25.0049 17.443 24.8686 16.9334 24.4703 16.7032Z" fill="#FEFEFE"/>
</g>
</svg>
