<svg width="46" height="46" viewBox="0 0 46 46" fill="none" xmlns="http://www.w3.org/2000/svg">
<path fill-rule="evenodd" clip-rule="evenodd" d="M23 46C35.7025 46 46 35.7025 46 23C46 10.2975 35.7025 0 23 0C10.2975 0 0 10.2975 0 23C0 35.7025 10.2975 46 23 46Z" fill="#82CA96"/>
<mask id="mask0" mask-type="alpha" maskUnits="userSpaceOnUse" x="11" y="11" width="24" height="24">
<path fill-rule="evenodd" clip-rule="evenodd" d="M11.074 11.074H34.8173V34.8222H11.074V11.074Z" fill="white"/>
</mask>
<g mask="url(#mask0)">
<path fill-rule="evenodd" clip-rule="evenodd" d="M28.5504 28.5553C28.5395 28.5662 28.5301 28.5758 28.5192 28.5853C27.4996 28.584 26.5496 28.0333 26.0385 27.1501C25.894 26.9007 25.6255 26.7453 25.3365 26.7453C25.0476 26.7453 24.7804 26.9007 24.6347 27.1501C24.1236 28.0347 23.1735 28.5853 22.1528 28.5853C21.1332 28.5853 20.1819 28.0347 19.6693 27.1501C19.5249 26.8993 19.2577 26.7453 18.9688 26.7453H18.9674C18.6785 26.7453 18.4113 26.9007 18.2668 27.1501C17.7557 28.0347 16.8044 28.584 15.7849 28.584C15.7755 28.5744 15.7644 28.5649 15.7549 28.5553C14.8567 27.6571 14.1861 26.6145 13.7459 25.5009C14.3688 25.8185 15.0654 25.993 15.7849 25.993C16.9911 25.993 18.136 25.5023 18.9688 24.6654C19.8017 25.5023 20.9464 25.993 22.1528 25.993C23.3602 25.993 24.5051 25.5023 25.3365 24.6654C26.1693 25.5023 27.3143 25.993 28.5218 25.993C29.2402 25.993 29.9365 25.8185 30.5594 25.5009C30.1192 26.6145 29.4486 27.6571 28.5504 28.5553ZM22.1528 31.2049C20.4639 31.2049 18.8476 30.7456 17.4422 29.8856C18.0121 29.658 18.5326 29.3145 18.9688 28.877C19.8017 29.7139 20.9464 30.2059 22.1528 30.2059C23.3602 30.2059 24.5051 29.7139 25.3365 28.877C25.7727 29.3145 26.2933 29.658 26.863 29.8856C25.458 30.7456 23.8414 31.2049 22.1528 31.2049ZM13.1286 22.73C13.0903 22.1371 13.1108 21.5415 13.1898 20.9527C13.9367 21.4816 14.8417 21.7814 15.7849 21.7814C16.9911 21.7814 18.136 21.2907 18.9688 20.4525C19.8017 21.2907 20.9464 21.7814 22.1528 21.7814C23.3602 21.7814 24.5051 21.2907 25.3365 20.4539C26.1693 21.2907 27.3143 21.7814 28.5218 21.7814C29.4636 21.7814 30.3686 21.4816 31.1155 20.9527C31.1945 21.5415 31.215 22.1371 31.177 22.73C31.11 22.7873 31.0501 22.8582 31.0037 22.9386C30.4926 23.8231 29.5414 24.3724 28.5218 24.3724C27.5009 24.3724 26.5496 23.8231 26.0385 22.9386C25.894 22.6878 25.6255 22.5338 25.3365 22.5338C25.0476 22.5338 24.7804 22.6878 24.6347 22.9386C24.1236 23.8231 23.1735 24.3724 22.1528 24.3724C21.1332 24.3724 20.1819 23.8231 19.6693 22.9386C19.5249 22.6878 19.2577 22.5338 18.9688 22.5338H18.9674C18.6785 22.5338 18.4113 22.6878 18.2668 22.9386C17.7557 23.8231 16.8044 24.3724 15.7849 24.3724C14.7642 24.3724 13.8127 23.8231 13.3016 22.9386C13.254 22.8582 13.1953 22.7873 13.1286 22.73ZM14.4737 17.3722C14.8935 17.5003 15.3351 17.5685 15.7835 17.5685C16.9911 17.5685 18.136 17.0778 18.9688 16.241C19.8017 17.0778 20.9464 17.5685 22.1528 17.5685C23.3589 17.5685 24.5039 17.0778 25.3365 16.241C26.1693 17.0778 27.3143 17.5685 28.5218 17.5685C28.9702 17.5685 29.4118 17.5003 29.8316 17.3722C30.1888 17.9419 30.4735 18.5444 30.6902 19.1659C30.1519 19.7901 29.36 20.1608 28.5218 20.1608C27.5009 20.1608 26.5496 19.6116 26.0385 18.727C25.894 18.4762 25.6255 18.3222 25.3365 18.3222C25.0476 18.3222 24.7804 18.4762 24.6347 18.727C24.1236 19.6116 23.1735 20.1608 22.1528 20.1608C21.1332 20.1608 20.1819 19.6116 19.6693 18.7256C19.5249 18.4762 19.2577 18.3222 18.9688 18.3222H18.9674C18.6785 18.3222 18.4113 18.4762 18.2668 18.727C17.7557 19.6116 16.8044 20.1608 15.7849 20.1608C14.9454 20.1608 14.1534 19.7901 13.615 19.1659C13.8318 18.5444 14.1168 17.9433 14.4737 17.3722ZM15.7549 15.7598C17.4641 14.0507 19.7361 13.1089 22.1528 13.1089C24.5692 13.1089 26.8412 14.0507 28.5504 15.7585C28.6104 15.8184 28.669 15.8784 28.7262 15.9398C28.6581 15.9452 28.5899 15.9479 28.5218 15.9479C27.5009 15.9479 26.5496 15.3987 26.0385 14.5141C25.894 14.2633 25.6255 14.1093 25.3365 14.1093C25.0476 14.1093 24.7804 14.2647 24.636 14.5141C24.1249 15.3987 23.1735 15.9479 22.1528 15.9479C21.1332 15.9479 20.1819 15.3987 19.6693 14.5141C19.5249 14.2633 19.2577 14.1093 18.9688 14.1093C18.8244 14.1093 18.6839 14.1475 18.5626 14.217C18.4427 14.2878 18.3391 14.3887 18.2668 14.5141C17.7557 15.3987 16.8044 15.9479 15.7849 15.9479C15.7167 15.9479 15.6486 15.9452 15.5804 15.9398C15.6363 15.8798 15.6951 15.8198 15.7549 15.7598ZM34.5188 33.0845L30.7802 29.3459C30.742 29.3077 30.6943 29.2913 30.6521 29.2614C31.2681 28.5254 31.7738 27.728 32.1677 26.8912C33.3657 24.352 33.5484 21.4502 32.7129 18.8033C32.4457 17.9515 32.0723 17.1269 31.5939 16.35C31.3104 15.888 30.9889 15.4423 30.6303 15.0184C30.4286 14.7785 30.2146 14.5454 29.9898 14.3206C27.8962 12.227 25.113 11.074 22.1528 11.074C19.1923 11.074 16.4091 12.227 14.3157 14.3206C14.0894 14.5454 13.8767 14.7785 13.675 15.0184C13.3166 15.4423 12.9949 15.888 12.7114 16.3486C12.233 17.1269 11.8596 17.9515 11.591 18.802C10.7528 21.4516 10.9341 24.356 12.1321 26.8952C12.6501 27.9938 13.3574 29.0228 14.257 29.9347C14.2762 29.9551 14.2952 29.9742 14.3157 29.9946C16.4091 32.0881 19.1923 33.2412 22.1528 33.2412C24.7804 33.2412 27.2665 32.328 29.2565 30.6584C29.2878 30.7006 29.3041 30.7483 29.3409 30.7851L33.0795 34.5238C33.2785 34.7227 33.539 34.8222 33.7992 34.8222C34.0595 34.8222 34.3212 34.7227 34.5188 34.5238C34.9168 34.1258 34.9168 33.4824 34.5188 33.0845Z" fill="#FEFEFE"/>
</g>
</svg>
