<svg width="28" height="28" viewBox="0 0 28 28" fill="none" xmlns="http://www.w3.org/2000/svg">
<mask id="mask0" mask-type="alpha" maskUnits="userSpaceOnUse" x="0" y="0" width="28" height="28">
<path fill-rule="evenodd" clip-rule="evenodd" d="M0 0H27.8726V27.8784H0V0Z" fill="white"/>
</mask>
<g mask="url(#mask0)">
<path fill-rule="evenodd" clip-rule="evenodd" d="M20.5158 20.5216C20.503 20.5344 20.492 20.5456 20.4792 20.5568C19.2822 20.5552 18.167 19.9088 17.567 18.872C17.3974 18.5792 17.0822 18.3968 16.743 18.3968C16.4038 18.3968 16.0902 18.5792 15.9192 18.872C15.3192 19.9104 14.2038 20.5568 13.0056 20.5568C11.8086 20.5568 10.692 19.9104 10.0902 18.872C9.9206 18.5776 9.607 18.3968 9.2678 18.3968H9.2662C8.927 18.3968 8.6134 18.5792 8.4438 18.872C7.8438 19.9104 6.727 20.5552 5.5302 20.5552C5.51916 20.544 5.5062 20.5328 5.495 20.5216C4.4406 19.4672 3.6534 18.2432 3.1366 16.936C3.8678 17.3088 4.68556 17.5136 5.5302 17.5136C6.9462 17.5136 8.2902 16.9376 9.2678 15.9552C10.2456 16.9376 11.5894 17.5136 13.0056 17.5136C14.423 17.5136 15.767 16.9376 16.743 15.9552C17.7206 16.9376 19.0648 17.5136 20.4822 17.5136C21.3256 17.5136 22.143 17.3088 22.8742 16.936C22.3574 18.2432 21.5702 19.4672 20.5158 20.5216ZM13.0056 23.632C11.023 23.632 9.12556 23.0928 7.4758 22.0832C8.14476 21.816 8.7558 21.4128 9.2678 20.8992C10.2456 21.8816 11.5894 22.4592 13.0056 22.4592C14.423 22.4592 15.767 21.8816 16.743 20.8992C17.255 21.4128 17.8662 21.816 18.535 22.0832C16.8856 23.0928 14.9878 23.632 13.0056 23.632ZM2.41196 13.6832C2.367 12.9872 2.391 12.288 2.4838 11.5968C3.3606 12.2176 4.423 12.5696 5.5302 12.5696C6.9462 12.5696 8.2902 11.9936 9.2678 11.0096C10.2456 11.9936 11.5894 12.5696 13.0056 12.5696C14.423 12.5696 15.767 11.9936 16.743 11.0112C17.7206 11.9936 19.0648 12.5696 20.4822 12.5696C21.5878 12.5696 22.6502 12.2176 23.527 11.5968C23.6198 12.288 23.6438 12.9872 23.5992 13.6832C23.5206 13.7504 23.4502 13.8336 23.3958 13.928C22.7958 14.9664 21.6792 15.6112 20.4822 15.6112C19.2838 15.6112 18.167 14.9664 17.567 13.928C17.3974 13.6336 17.0822 13.4528 16.743 13.4528C16.4038 13.4528 16.0902 13.6336 15.9192 13.928C15.3192 14.9664 14.2038 15.6112 13.0056 15.6112C11.8086 15.6112 10.692 14.9664 10.0902 13.928C9.9206 13.6336 9.607 13.4528 9.2678 13.4528H9.2662C8.927 13.4528 8.6134 13.6336 8.4438 13.928C7.8438 14.9664 6.727 15.6112 5.5302 15.6112C4.33196 15.6112 3.215 14.9664 2.615 13.928C2.55916 13.8336 2.4902 13.7504 2.41196 13.6832ZM3.991 7.3936C4.4838 7.544 5.0022 7.624 5.5286 7.624C6.9462 7.624 8.2902 7.048 9.2678 6.0656C10.2456 7.048 11.5894 7.624 13.0056 7.624C14.4214 7.624 15.7656 7.048 16.743 6.0656C17.7206 7.048 19.0648 7.624 20.4822 7.624C21.0086 7.624 21.527 7.544 22.0198 7.3936C22.4392 8.0624 22.7734 8.7696 23.0278 9.4992C22.3958 10.232 21.4662 10.6672 20.4822 10.6672C19.2838 10.6672 18.167 10.0224 17.567 8.984C17.3974 8.6896 17.0822 8.5088 16.743 8.5088C16.4038 8.5088 16.0902 8.6896 15.9192 8.984C15.3192 10.0224 14.2038 10.6672 13.0056 10.6672C11.8086 10.6672 10.692 10.0224 10.0902 8.9824C9.9206 8.6896 9.607 8.5088 9.2678 8.5088H9.2662C8.927 8.5088 8.6134 8.6896 8.4438 8.984C7.8438 10.0224 6.727 10.6672 5.5302 10.6672C4.54476 10.6672 3.615 10.232 2.983 9.4992C3.2374 8.7696 3.57196 8.064 3.991 7.3936ZM5.495 5.5008C7.5014 3.4944 10.1686 2.3888 13.0056 2.3888C15.8422 2.3888 18.5094 3.4944 20.5158 5.4992C20.5862 5.5696 20.655 5.64 20.7222 5.712C20.6422 5.7184 20.5622 5.7216 20.4822 5.7216C19.2838 5.7216 18.167 5.0768 17.567 4.0384C17.3974 3.744 17.0822 3.5632 16.743 3.5632C16.4038 3.5632 16.0902 3.7456 15.9206 4.0384C15.3206 5.0768 14.2038 5.7216 13.0056 5.7216C11.8086 5.7216 10.692 5.0768 10.0902 4.0384C9.9206 3.744 9.607 3.5632 9.2678 3.5632C9.09836 3.5632 8.9334 3.608 8.791 3.6896C8.6502 3.7728 8.5286 3.8912 8.4438 4.0384C7.8438 5.0768 6.727 5.7216 5.5302 5.7216C5.4502 5.7216 5.3702 5.7184 5.2902 5.712C5.3558 5.6416 5.42476 5.5712 5.495 5.5008ZM27.5222 25.8384L23.1334 21.4496C23.0886 21.4048 23.0326 21.3856 22.983 21.3504C23.7062 20.4864 24.2998 19.5504 24.7622 18.568C26.1686 15.5872 26.383 12.1808 25.4022 9.0736C25.0886 8.0736 24.6502 7.1056 24.0886 6.1936C23.7558 5.6512 23.3784 5.128 22.9574 4.6304C22.7206 4.3488 22.4694 4.0752 22.2056 3.8112C19.7478 1.3536 16.4806 0 13.0056 0C9.5302 0 6.263 1.3536 3.80556 3.8112C3.5398 4.0752 3.2902 4.3488 3.0534 4.6304C2.6326 5.128 2.255 5.6512 1.9222 6.192C1.3606 7.1056 0.922201 8.0736 0.607001 9.072C-0.376999 12.1824 -0.164199 15.592 1.2422 18.5728C1.8502 19.8624 2.6806 21.0704 3.7366 22.1408C3.75916 22.1648 3.7814 22.1872 3.80556 22.2112C6.263 24.6688 9.5302 26.0224 13.0056 26.0224C16.0902 26.0224 19.0086 24.9504 21.3448 22.9904C21.3814 23.04 21.4006 23.096 21.4438 23.1392L25.8326 27.528C26.0662 27.7616 26.372 27.8784 26.6774 27.8784C26.983 27.8784 27.2902 27.7616 27.5222 27.528C27.9894 27.0608 27.9894 26.3056 27.5222 25.8384Z" fill="#FEFEFE"/>
</g>
</svg>
