<svg width="30" height="30" viewBox="0 0 30 30" fill="none" xmlns="http://www.w3.org/2000/svg">
<path fill-rule="evenodd" clip-rule="evenodd" d="M23.6588 22.0676C23.6588 22.7055 23.1426 23.2217 22.504 23.2217H7.49601C6.85876 23.2217 6.34124 22.7055 6.34124 22.0676V17.4492H8.65011V20.9129H21.3499V17.4492H23.6588V22.0676ZM10.4341 13.1694C10.5273 12.9639 10.7328 12.8315 10.959 12.8315H13.2685V5.32683C13.2685 5.0082 13.5266 4.74945 13.8452 4.74945H16.1548C16.4734 4.74945 16.7315 5.0082 16.7315 5.32683V12.8315H19.041C19.2672 12.8315 19.4727 12.9632 19.5659 13.1694C19.6596 13.3763 19.6251 13.6184 19.4747 13.7887L15.4344 18.4064C15.3246 18.5308 15.1663 18.604 15 18.604C14.8337 18.604 14.6754 18.5322 14.5656 18.4064L10.5253 13.7887C10.3763 13.6177 10.339 13.3763 10.4341 13.1694ZM15 0C6.71574 0 0 6.71574 0 15C0 23.2843 6.71574 30 15 30C23.2843 30 30 23.2843 30 15C30 6.71574 23.2843 0 15 0Z" fill="white"/>
</svg>
