<svg width="141" height="41" viewBox="0 0 141 41" fill="none" xmlns="http://www.w3.org/2000/svg">
<mask id="mask0" mask-type="alpha" maskUnits="userSpaceOnUse" x="0" y="0" width="26" height="41">
<path fill-rule="evenodd" clip-rule="evenodd" d="M0 0.999695H25.5479V40.4475H0V0.999695Z" fill="white"/>
</mask>
<g mask="url(#mask0)">
<path fill-rule="evenodd" clip-rule="evenodd" d="M22.3591 23.0445C21.8001 23.8655 19.4631 25.3915 18.9951 27.2085C18.5281 29.0245 19.9171 30.3025 19.9321 31.9525C19.9471 33.6035 19.2041 34.8425 18.2151 34.8565C17.2271 34.8695 15.0641 34.8565 14.4641 34.8255C13.8831 34.7955 13.7211 34.1015 13.7211 33.7305V8.5745C13.7211 7.6015 13.7041 7.1965 14.0231 7.6795C14.3421 8.1605 22.0471 19.4715 22.6041 20.3885C23.1611 21.3055 22.9381 22.1945 22.3591 23.0445ZM11.3121 33.7305C11.3121 34.2395 11.0801 34.8715 10.3841 34.8705C9.78411 34.8705 8.00711 34.8695 7.01911 34.8565C6.03111 34.8425 5.35211 33.6035 5.36711 31.9525C5.38211 30.3025 6.64511 28.8865 6.12911 27.0825C5.66611 25.4605 3.52211 23.8825 2.98811 23.0445C2.46111 22.2185 2.44311 21.0365 2.75111 20.3885C3.21111 19.4195 10.6141 8.1605 10.9341 7.6785C11.2531 7.1965 11.3121 7.6015 11.3121 8.5745V33.7305ZM24.8561 18.9405C23.9541 17.4385 12.4351 0.999496 12.4351 0.999496C12.4351 0.999496 1.70111 17.4375 0.798108 18.9405C-0.173892 20.5635 -0.246891 22.5425 0.518108 23.7705C1.20111 24.8655 3.55711 26.8295 3.96611 27.5975C4.61811 28.8195 2.01811 31.5125 3.43911 34.6625C4.24911 36.4595 5.95511 37.2795 7.09711 37.2655C10.0921 37.2255 11.2191 37.2515 11.2191 37.2515C11.2191 37.2515 11.2531 38.7635 11.1961 39.2895C11.1151 40.0425 10.8021 40.4475 10.8021 40.4475H12.6401H14.3231C14.3231 40.4475 13.9061 40.1005 13.8371 39.3585C13.7921 38.8845 13.8141 37.2515 13.8141 37.2515C13.8141 37.2515 15.2151 37.2755 18.2111 37.3155C19.3531 37.3305 21.1341 36.4845 21.9431 34.6885C23.3631 31.5375 20.9481 28.7065 21.4381 27.6095C21.7941 26.8155 24.5501 24.4895 25.0001 23.7755C25.6811 22.6975 25.8281 20.5635 24.8561 18.9405Z" fill="white"/>
</g>
<mask id="mask1" mask-type="alpha" maskUnits="userSpaceOnUse" x="0" y="0" width="141" height="41">
<path fill-rule="evenodd" clip-rule="evenodd" d="M0 40.4477H140.044V0.999695H0V40.4477Z" fill="white"/>
</mask>
<g mask="url(#mask1)">
<path fill-rule="evenodd" clip-rule="evenodd" d="M31.1531 28.2407H33.5181V15.2357H31.1531V28.2407Z" fill="white"/>
<path fill-rule="evenodd" clip-rule="evenodd" d="M36.1426 18.7457C36.5806 18.6207 37.1496 18.5017 37.8506 18.3897C38.5506 18.2757 39.3266 18.2197 40.1776 18.2197C40.9776 18.2197 41.6466 18.3297 42.1846 18.5487C42.7226 18.7667 43.1516 19.0737 43.4706 19.4677C43.7896 19.8617 44.0146 20.3377 44.1456 20.8937C44.2776 21.4507 44.3426 22.0597 44.3426 22.7237V28.2407H42.0726V23.0797C42.0726 22.5547 42.0386 22.1067 41.9696 21.7377C41.9006 21.3697 41.7876 21.0687 41.6316 20.8377C41.4756 20.6057 41.2626 20.4367 40.9936 20.3307C40.7246 20.2247 40.3956 20.1717 40.0086 20.1717C39.7206 20.1717 39.4206 20.1897 39.1076 20.2267C38.7946 20.2657 38.5636 20.2967 38.4136 20.3207V28.2407H36.1426V18.7457Z" fill="white"/>
<path fill-rule="evenodd" clip-rule="evenodd" d="M50.1411 26.6451C50.8421 26.6451 51.3731 26.6081 51.7361 26.5331V24.0181C51.6111 23.9811 51.4301 23.9431 51.1921 23.9061C50.9541 23.8681 50.6921 23.8491 50.4041 23.8491C50.1531 23.8491 49.9001 23.8681 49.6441 23.9061C49.3881 23.9431 49.1561 24.0121 48.9501 24.1121C48.7441 24.2121 48.5771 24.3531 48.4531 24.5341C48.3271 24.7151 48.2651 24.9441 48.2651 25.2191C48.2651 25.7571 48.4331 26.1291 48.7711 26.3351C49.1091 26.5421 49.5661 26.6451 50.1411 26.6451ZM49.9541 18.1821C50.7041 18.1821 51.3351 18.2761 51.8491 18.4631C52.3621 18.6511 52.7711 18.9151 53.0781 19.2511C53.3841 19.5891 53.6031 19.9991 53.7351 20.4811C53.8661 20.9621 53.9321 21.4921 53.9321 22.0671V28.0151C53.5811 28.0901 53.0531 28.1811 52.3461 28.2881C51.6391 28.3931 50.8421 28.4471 49.9541 28.4471C49.3651 28.4471 48.8281 28.3901 48.3401 28.2781C47.8521 28.1661 47.4361 27.9841 47.0921 27.7341C46.7471 27.4841 46.4791 27.1591 46.2851 26.7571C46.0911 26.3581 45.9941 25.8641 45.9941 25.2751C45.9941 24.7121 46.1031 24.2371 46.3231 23.8491C46.5411 23.4611 46.8391 23.1461 47.2141 22.9021C47.5891 22.6581 48.0241 22.4831 48.5181 22.3761C49.0121 22.2701 49.5281 22.2171 50.0661 22.2171C50.3161 22.2171 50.5791 22.2331 50.8541 22.2631C51.1291 22.2941 51.4231 22.3481 51.7361 22.4231V22.0481C51.7361 21.7851 51.7051 21.5351 51.6421 21.2971C51.5791 21.0601 51.4701 20.8501 51.3141 20.6681C51.1581 20.4881 50.9511 20.3461 50.6951 20.2471C50.4381 20.1461 50.1161 20.0961 49.7281 20.0961C49.2031 20.0961 48.7211 20.1331 48.2841 20.2081C47.8451 20.2841 47.4891 20.3721 47.2141 20.4711L46.9331 18.6321C47.2201 18.5331 47.6391 18.4321 48.1891 18.3321C48.7401 18.2331 49.3281 18.1821 49.9541 18.1821Z" fill="white"/>
<path fill-rule="evenodd" clip-rule="evenodd" d="M60.0005 26.0074C60.4135 26.0074 60.7535 25.9734 61.0225 25.9034C61.2925 25.8354 61.5075 25.7414 61.6705 25.6224C61.8325 25.5044 61.9455 25.3624 62.0085 25.2004C62.0705 25.0374 62.1025 24.8574 62.1025 24.6554C62.1025 24.2314 61.9015 23.8774 61.5015 23.5964C61.1015 23.3154 60.4135 23.0114 59.4375 22.6864C59.0115 22.5354 58.5865 22.3634 58.1615 22.1694C57.7355 21.9764 57.3545 21.7324 57.0165 21.4384C56.6785 21.1444 56.4035 20.7874 56.1905 20.3684C55.9785 19.9494 55.8725 19.4394 55.8725 18.8394C55.8725 18.2384 55.9845 17.6974 56.2095 17.2164C56.4355 16.7344 56.7535 16.3244 57.1665 15.9864C57.5795 15.6494 58.0795 15.3894 58.6675 15.2084C59.2555 15.0274 59.9185 14.9364 60.6575 14.9364C61.5325 14.9364 62.2895 15.0294 62.9275 15.2174C63.5655 15.4044 64.0915 15.6114 64.5035 15.8364L63.6595 18.1454C63.2965 17.9574 62.8935 17.7914 62.4485 17.6484C62.0045 17.5044 61.4695 17.4314 60.8445 17.4314C60.1445 17.4314 59.6405 17.5284 59.3335 17.7224C59.0275 17.9164 58.8745 18.2134 58.8745 18.6134C58.8745 18.8524 58.9305 19.0524 59.0435 19.2144C59.1555 19.3774 59.3155 19.5244 59.5215 19.6554C59.7285 19.7864 59.9655 19.9054 60.2345 20.0124C60.5035 20.1184 60.8005 20.2274 61.1265 20.3404C61.8015 20.5904 62.3895 20.8374 62.8905 21.0814C63.3905 21.3254 63.8065 21.6104 64.1375 21.9354C64.4695 22.2604 64.7165 22.6424 64.8785 23.0794C65.0415 23.5184 65.1235 24.0494 65.1235 24.6744C65.1235 25.8884 64.6975 26.8294 63.8475 27.4984C62.9965 28.1684 61.7135 28.5024 60.0005 28.5024C59.4245 28.5024 58.9055 28.4684 58.4425 28.4004C57.9795 28.3304 57.5705 28.2464 57.2135 28.1464C56.8565 28.0464 56.5505 27.9404 56.2935 27.8274C56.0375 27.7144 55.8215 27.6094 55.6465 27.5084L56.4725 25.1824C56.8595 25.3944 57.3385 25.5854 57.9075 25.7534C58.4775 25.9224 59.1745 26.0074 60.0005 26.0074Z" fill="white"/>
<path fill-rule="evenodd" clip-rule="evenodd" d="M72.2627 18.1822C72.1977 18.3712 72.1017 18.6282 71.9757 18.9532C71.8497 19.2782 71.7067 19.6542 71.5467 20.0792C71.3857 20.5052 71.2057 20.9752 71.0077 21.4872C70.8087 21.9992 70.6077 22.5362 70.4027 23.0992H74.1207C73.9217 22.5352 73.7297 21.9952 73.5427 21.4822C73.3567 20.9682 73.1797 20.4982 73.0117 20.0722C72.8437 19.6462 72.6957 19.2712 72.5697 18.9462C72.4427 18.6212 72.3407 18.3672 72.2627 18.1822ZM75.7797 28.2412C75.6357 27.7882 75.4797 27.3242 75.3127 26.8482C75.1467 26.3712 74.9807 25.8982 74.8157 25.4252H69.7367C69.5727 25.9002 69.4077 26.3752 69.2427 26.8522C69.0777 27.3282 68.9247 27.7912 68.7827 28.2412H65.7417C66.2317 26.8392 66.6957 25.5442 67.1347 24.3562C67.5737 23.1672 68.0037 22.0482 68.4237 20.9962C68.8447 19.9462 69.2587 18.9492 69.6657 18.0042C70.0747 17.0592 70.4977 16.1372 70.9367 15.2362H73.7117C74.1387 16.1372 74.5597 17.0592 74.9747 18.0042C75.3897 18.9492 75.8077 19.9462 76.2287 20.9962C76.6497 22.0482 77.0797 23.1672 77.5197 24.3562C77.9597 25.5442 78.4247 26.8392 78.9147 28.2412H75.7797Z" fill="white"/>
<path fill-rule="evenodd" clip-rule="evenodd" d="M80.3276 28.2408V15.2358H89.0346V17.6938H83.2546V20.4158H88.3966V22.8738H83.2546V28.2408H80.3276Z" fill="white"/>
<path fill-rule="evenodd" clip-rule="evenodd" d="M90.7273 28.2408V15.2358H99.5093V17.6938H93.6553V20.2468H98.8523V22.6478H93.6553V25.7818H99.9403V28.2408H90.7273Z" fill="white"/>
<path fill-rule="evenodd" clip-rule="evenodd" d="M108.448 28.3746V15.0716H116.855V17.1256H110.866V20.5226H116.184V22.5776H110.866V28.3746H108.448Z" fill="white"/>
<path fill-rule="evenodd" clip-rule="evenodd" d="M121.405 22.3854V26.4364C121.674 26.4614 121.961 26.4814 122.269 26.4934C122.576 26.5064 122.857 26.5124 123.113 26.5124C123.613 26.5124 124.076 26.4814 124.505 26.4164C124.933 26.3534 125.304 26.2404 125.618 26.0804C125.932 25.9204 126.181 25.7064 126.367 25.4384C126.552 25.1684 126.645 24.8234 126.645 24.4014C126.645 23.6464 126.37 23.1214 125.82 22.8264C125.269 22.5324 124.508 22.3854 123.535 22.3854H121.405ZM121.405 20.4854H123.113C124.035 20.4854 124.758 20.3544 125.282 20.0914C125.807 19.8294 126.07 19.3594 126.07 18.6814C126.07 18.0404 125.797 17.5864 125.254 17.3184C124.71 17.0494 124.002 16.9144 123.133 16.9144C122.761 16.9144 122.432 16.9214 122.144 16.9344C121.856 16.9474 121.609 16.9664 121.405 16.9914V20.4854ZM123.036 28.5284C122.333 28.5284 121.622 28.5054 120.905 28.4604C120.189 28.4154 119.562 28.3234 119.025 28.1824V15.2644C119.306 15.2134 119.607 15.1644 119.926 15.1194C120.246 15.0744 120.572 15.0404 120.905 15.0144C121.238 14.9894 121.568 14.9694 121.894 14.9564C122.22 14.9444 122.53 14.9384 122.825 14.9384C123.632 14.9384 124.38 14.9984 125.071 15.1194C125.762 15.2414 126.36 15.4434 126.866 15.7244C127.371 16.0064 127.765 16.3774 128.047 16.8384C128.328 17.2984 128.469 17.8684 128.469 18.5464C128.469 19.1734 128.318 19.7114 128.018 20.1584C127.717 20.6074 127.298 20.9654 126.76 21.2344C127.567 21.5024 128.162 21.8994 128.546 22.4244C128.929 22.9484 129.121 23.6144 129.121 24.4204C129.121 25.7894 128.622 26.8174 127.624 27.5014C126.626 28.1864 125.096 28.5284 123.036 28.5284Z" fill="white"/>
<path fill-rule="evenodd" clip-rule="evenodd" d="M131.636 28.3746V15.0716H140.044V17.1256H134.055V20.5226H139.372V22.5776H134.055V28.3746H131.636Z" fill="white"/>
<path fill-rule="evenodd" clip-rule="evenodd" d="M30.6484 38.5826V32.3796H34.5694V33.3376H31.7764V34.9216H34.2554V35.8796H31.7764V38.5826H30.6484Z" fill="white"/>
<path fill-rule="evenodd" clip-rule="evenodd" d="M38.7944 36.2379C38.7944 35.7719 38.6944 35.4039 38.4944 35.1329C38.2944 34.8609 38.0154 34.7249 37.6574 34.7249C37.2994 34.7249 37.0204 34.8609 36.8204 35.1329C36.6204 35.4039 36.5214 35.7719 36.5214 36.2379C36.5214 36.7099 36.6204 37.0829 36.8204 37.3569C37.0204 37.6319 37.2994 37.7679 37.6574 37.7679C38.0154 37.7679 38.2944 37.6319 38.4944 37.3569C38.6944 37.0829 38.7944 36.7099 38.7944 36.2379ZM39.9044 36.2379C39.9044 36.6079 39.8504 36.9449 39.7434 37.2499C39.6354 37.5529 39.4834 37.8129 39.2864 38.0279C39.0894 38.2429 38.8524 38.4099 38.5754 38.5289C38.2974 38.6489 37.9914 38.7089 37.6574 38.7089C37.3234 38.7089 37.0194 38.6489 36.7444 38.5289C36.4704 38.4099 36.2344 38.2429 36.0374 38.0279C35.8404 37.8129 35.6864 37.5529 35.5764 37.2499C35.4654 36.9449 35.4104 36.6079 35.4104 36.2379C35.4104 35.8679 35.4654 35.5319 35.5764 35.2309C35.6864 34.9289 35.8414 34.6719 36.0424 34.4569C36.2414 34.2419 36.4794 34.0759 36.7534 33.9599C37.0274 33.8429 37.3294 33.7849 37.6574 33.7849C37.9854 33.7849 38.2884 33.8429 38.5664 33.9599C38.8434 34.0759 39.0814 34.2419 39.2774 34.4569C39.4744 34.6719 39.6284 34.9289 39.7384 35.2309C39.8494 35.5319 39.9044 35.8679 39.9044 36.2379Z" fill="white"/>
<path fill-rule="evenodd" clip-rule="evenodd" d="M43.9414 34.8776C43.8514 34.8476 43.7274 34.8156 43.5694 34.7826C43.4114 34.7506 43.2284 34.7336 43.0194 34.7336C42.8994 34.7336 42.7734 34.7456 42.6384 34.7706C42.5044 34.7936 42.4104 34.8146 42.3574 34.8326V38.5826H41.2744V34.1256C41.4824 34.0476 41.7434 33.9746 42.0574 33.9056C42.3704 33.8376 42.7174 33.8036 43.0994 33.8036C43.1714 33.8036 43.2544 33.8076 43.3504 33.8156C43.4454 33.8246 43.5414 33.8376 43.6364 33.8526C43.7324 33.8666 43.8244 33.8856 43.9144 33.9056C44.0034 33.9266 44.0754 33.9456 44.1294 33.9636L43.9414 34.8776Z" fill="white"/>
<path fill-rule="evenodd" clip-rule="evenodd" d="M48.0143 35.7809C48.0143 35.6329 47.9933 35.4899 47.9523 35.3559C47.9103 35.2209 47.8483 35.1049 47.7683 35.0069C47.6873 34.9089 47.5893 34.8309 47.4723 34.7739C47.3563 34.7179 47.2183 34.6889 47.0563 34.6889C46.8893 34.6889 46.7433 34.7199 46.6183 34.7829C46.4933 34.8449 46.3873 34.9279 46.3003 35.0289C46.2133 35.1309 46.1463 35.2469 46.0983 35.3789C46.0513 35.5099 46.0183 35.6439 46.0003 35.7809H48.0143ZM44.8723 36.2639C44.8723 35.8529 44.9333 35.4919 45.0563 35.1809C45.1783 34.8709 45.3413 34.6129 45.5433 34.4069C45.7463 34.2019 45.9793 34.0469 46.2423 33.9419C46.5043 33.8379 46.7733 33.7849 47.0473 33.7849C47.6923 33.7849 48.1953 33.9849 48.5563 34.3849C48.9173 34.7849 49.0973 35.3819 49.0973 36.1759C49.0973 36.2349 49.0963 36.3019 49.0933 36.3769C49.0903 36.4509 49.0853 36.5179 49.0793 36.5779H45.9913C46.0213 36.9539 46.1543 37.2449 46.3893 37.4509C46.6253 37.6569 46.9673 37.7599 47.4143 37.7599C47.6773 37.7599 47.9173 37.7359 48.1353 37.6879C48.3533 37.6399 48.5243 37.5899 48.6503 37.5359L48.7933 38.4219C48.7333 38.4519 48.6513 38.4829 48.5473 38.5159C48.4423 38.5489 48.3233 38.5789 48.1893 38.6049C48.0553 38.6329 47.9103 38.6549 47.7553 38.6729C47.5993 38.6899 47.4413 38.6989 47.2803 38.6989C46.8683 38.6989 46.5103 38.6379 46.2063 38.5159C45.9023 38.3929 45.6513 38.2229 45.4543 38.0059C45.2573 37.7879 45.1113 37.5309 45.0153 37.2359C44.9203 36.9399 44.8723 36.6169 44.8723 36.2639Z" fill="white"/>
<path fill-rule="evenodd" clip-rule="evenodd" d="M50.2346 36.2467C50.2346 35.9007 50.2876 35.5767 50.3956 35.2747C50.5026 34.9747 50.6566 34.7137 50.8566 34.4917C51.0566 34.2707 51.2996 34.0987 51.5866 33.9737C51.8726 33.8477 52.1946 33.7847 52.5526 33.7847C52.9946 33.7847 53.4126 33.8657 53.8056 34.0267L53.5736 34.9127C53.4476 34.8587 53.3066 34.8137 53.1486 34.7787C52.9896 34.7427 52.8216 34.7257 52.6426 34.7257C52.2186 34.7257 51.8966 34.8577 51.6756 35.1237C51.4546 35.3897 51.3446 35.7637 51.3446 36.2467C51.3446 36.7127 51.4486 37.0807 51.6576 37.3517C51.8666 37.6237 52.2186 37.7597 52.7136 37.7597C52.8986 37.7597 53.0806 37.7417 53.2596 37.7057C53.4396 37.6697 53.5936 37.6247 53.7256 37.5717L53.8776 38.4667C53.7576 38.5257 53.5776 38.5797 53.3366 38.6277C53.0946 38.6757 52.8456 38.6987 52.5886 38.6987C52.1886 38.6987 51.8406 38.6387 51.5456 38.5167C51.2506 38.3927 51.0056 38.2237 50.8116 38.0057C50.6176 37.7877 50.4726 37.5277 50.3776 37.2267C50.2816 36.9257 50.2346 36.5997 50.2346 36.2467Z" fill="white"/>
<path fill-rule="evenodd" clip-rule="evenodd" d="M56.6162 37.8219C56.9502 37.8219 57.2042 37.8039 57.3772 37.7679V36.5689C57.3172 36.5509 57.2312 36.5329 57.1172 36.5149C57.0042 36.4979 56.8792 36.4879 56.7412 36.4879C56.6222 36.4879 56.5012 36.4979 56.3792 36.5149C56.2572 36.5329 56.1462 36.5659 56.0482 36.6139C55.9492 36.6619 55.8702 36.7289 55.8102 36.8149C55.7512 36.9019 55.7212 37.0099 55.7212 37.1419C55.7212 37.3979 55.8022 37.5759 55.9632 37.6749C56.1242 37.7729 56.3422 37.8219 56.6162 37.8219ZM56.5272 33.7849C56.8852 33.7849 57.1862 33.8299 57.4302 33.9199C57.6752 34.0089 57.8702 34.1339 58.0172 34.2959C58.1632 34.4569 58.2672 34.6519 58.3302 34.8819C58.3932 35.1109 58.4242 35.3639 58.4242 35.6379V38.4749C58.2572 38.5109 58.0052 38.5539 57.6682 38.6049C57.3302 38.6559 56.9502 38.6809 56.5272 38.6809C56.2462 38.6809 55.9902 38.6549 55.7572 38.6009C55.5242 38.5479 55.3252 38.4609 55.1612 38.3419C54.9972 38.2219 54.8692 38.0669 54.7772 37.8759C54.6842 37.6849 54.6382 37.4489 54.6382 37.1689C54.6382 36.8999 54.6902 36.6739 54.7942 36.4879C54.8992 36.3029 55.0412 36.1529 55.2202 36.0359C55.3992 35.9199 55.6062 35.8369 55.8422 35.7859C56.0772 35.7349 56.3242 35.7099 56.5802 35.7099C56.6992 35.7099 56.8252 35.7179 56.9562 35.7319C57.0882 35.7469 57.2282 35.7719 57.3772 35.8079V35.6289C57.3772 35.5039 57.3622 35.3839 57.3322 35.2709C57.3022 35.1579 57.2502 35.0569 57.1762 34.9709C57.1012 34.8839 57.0022 34.8169 56.8802 34.7699C56.7582 34.7219 56.6042 34.6979 56.4192 34.6979C56.1692 34.6979 55.9392 34.7169 55.7302 34.7519C55.5212 34.7879 55.3512 34.8299 55.2202 34.8779L55.0852 33.9999C55.2222 33.9519 55.4222 33.9039 55.6852 33.8569C55.9482 33.8089 56.2282 33.7849 56.5272 33.7849Z" fill="white"/>
<path fill-rule="evenodd" clip-rule="evenodd" d="M61.1731 37.8043C61.4591 37.8043 61.6681 37.7703 61.7991 37.7003C61.9301 37.6323 61.9961 37.5153 61.9961 37.3473C61.9961 37.1923 61.9261 37.0643 61.7861 36.9623C61.6461 36.8613 61.4151 36.7503 61.0921 36.6313C60.8951 36.5603 60.7151 36.4843 60.5501 36.4033C60.3861 36.3233 60.2451 36.2293 60.1261 36.1203C60.0061 36.0143 59.9121 35.8843 59.8431 35.7323C59.7751 35.5793 59.7401 35.3933 59.7401 35.1723C59.7401 34.7423 59.8991 34.4043 60.2151 34.1573C60.5311 33.9083 60.9611 33.7843 61.5041 33.7843C61.7781 33.7843 62.0411 33.8103 62.2921 33.8613C62.5421 33.9113 62.7301 33.9603 62.8561 34.0083L62.6591 34.8863C62.5391 34.8323 62.3871 34.7833 62.2021 34.7383C62.0171 34.6943 61.8021 34.6713 61.5581 34.6713C61.3371 34.6713 61.1581 34.7083 61.0211 34.7833C60.8831 34.8583 60.8151 34.9723 60.8151 35.1273C60.8151 35.2053 60.8281 35.2743 60.8551 35.3333C60.8821 35.3933 60.9281 35.4493 60.9941 35.4993C61.0591 35.5493 61.1461 35.6013 61.2531 35.6513C61.3601 35.7013 61.4921 35.7543 61.6471 35.8083C61.9031 35.9043 62.1221 35.9973 62.3001 36.0893C62.4801 36.1823 62.6271 36.2863 62.7441 36.4033C62.8601 36.5193 62.9451 36.6533 62.9991 36.8013C63.0521 36.9503 63.0791 37.1293 63.0791 37.3383C63.0791 37.7863 62.9141 38.1243 62.5831 38.3553C62.2521 38.5843 61.7781 38.6993 61.1641 38.6993C60.7521 38.6993 60.4211 38.6643 60.1701 38.5963C59.9201 38.5283 59.7431 38.4723 59.6421 38.4313L59.8301 37.5273C59.9911 37.5923 60.1841 37.6553 60.4071 37.7143C60.6311 37.7743 60.8861 37.8043 61.1731 37.8043Z" fill="white"/>
<path fill-rule="evenodd" clip-rule="evenodd" d="M64.2876 32.6656L65.3706 32.4866V33.9006H67.0356V34.8056H65.3706V36.7126C65.3706 37.0886 65.4306 37.3566 65.5496 37.5186C65.6686 37.6796 65.8716 37.7596 66.1586 37.7596C66.3556 37.7596 66.5296 37.7386 66.6826 37.6966C66.8346 37.6546 66.9546 37.6156 67.0446 37.5806L67.2236 38.4396C67.0986 38.4936 66.9336 38.5486 66.7316 38.6046C66.5286 38.6616 66.2896 38.6896 66.0156 38.6896C65.6816 38.6896 65.4016 38.6446 65.1786 38.5566C64.9546 38.4666 64.7766 38.3366 64.6456 38.1666C64.5146 37.9966 64.4216 37.7906 64.3686 37.5496C64.3146 37.3076 64.2876 37.0316 64.2876 36.7216V32.6656Z" fill="white"/>
<path fill-rule="evenodd" clip-rule="evenodd" d="M73.7759 36.2291C73.7759 35.7691 73.6849 35.4051 73.5029 35.1361C73.3209 34.8681 73.0329 34.7341 72.6389 34.7341C72.4599 34.7341 72.2919 34.7601 72.1329 34.8141C71.9749 34.8681 71.8479 34.9281 71.7529 34.9941V37.6881C71.8309 37.7061 71.9299 37.7221 72.0529 37.7371C72.1749 37.7511 72.3229 37.7591 72.4959 37.7591C72.8959 37.7591 73.2089 37.6241 73.4359 37.3521C73.6629 37.0811 73.7759 36.7061 73.7759 36.2291ZM74.8859 36.2471C74.8859 36.6231 74.8309 36.9611 74.7199 37.2621C74.6099 37.5641 74.4519 37.8221 74.2459 38.0371C74.0399 38.2511 73.7909 38.4161 73.4989 38.5291C73.2059 38.6421 72.8749 38.6991 72.5049 38.6991C72.1469 38.6991 71.8049 38.6721 71.4799 38.6191C71.1549 38.5651 70.8849 38.5051 70.6699 38.4401V31.8161L71.7529 31.6361V34.0621C71.8789 33.9971 72.0319 33.9371 72.2139 33.8831C72.3959 33.8301 72.5969 33.8031 72.8179 33.8031C73.1459 33.8031 73.4409 33.8611 73.6999 33.9771C73.9599 34.0931 74.1759 34.2591 74.3489 34.4741C74.5219 34.6891 74.6549 34.9471 74.7469 35.2491C74.8399 35.5491 74.8859 35.8821 74.8859 36.2471Z" fill="white"/>
<path fill-rule="evenodd" clip-rule="evenodd" d="M77.9026 37.8219C78.2366 37.8219 78.4906 37.8039 78.6636 37.7679V36.5689C78.6036 36.5509 78.5176 36.5329 78.4036 36.5149C78.2906 36.4979 78.1656 36.4879 78.0276 36.4879C77.9086 36.4879 77.7876 36.4979 77.6656 36.5149C77.5436 36.5329 77.4326 36.5659 77.3346 36.6139C77.2356 36.6619 77.1566 36.7289 77.0966 36.8149C77.0376 36.9019 77.0076 37.0099 77.0076 37.1419C77.0076 37.3979 77.0886 37.5759 77.2496 37.6749C77.4106 37.7729 77.6286 37.8219 77.9026 37.8219ZM77.8136 33.7849C78.1716 33.7849 78.4726 33.8299 78.7166 33.9199C78.9616 34.0089 79.1576 34.1339 79.3036 34.2959C79.4496 34.4569 79.5546 34.6519 79.6166 34.8819C79.6796 35.1109 79.7116 35.3639 79.7116 35.6379V38.4749C79.5436 38.5109 79.2916 38.5539 78.9546 38.6049C78.6176 38.6559 78.2366 38.6809 77.8136 38.6809C77.5326 38.6809 77.2766 38.6549 77.0436 38.6009C76.8106 38.5479 76.6116 38.4609 76.4476 38.3419C76.2836 38.2219 76.1556 38.0669 76.0636 37.8759C75.9706 37.6849 75.9246 37.4489 75.9246 37.1689C75.9246 36.8999 75.9766 36.6739 76.0816 36.4879C76.1856 36.3029 76.3276 36.1529 76.5066 36.0359C76.6856 35.9199 76.8926 35.8369 77.1286 35.7859C77.3636 35.7349 77.6106 35.7099 77.8666 35.7099C77.9856 35.7099 78.1116 35.7179 78.2426 35.7319C78.3746 35.7469 78.5146 35.7719 78.6636 35.8079V35.6289C78.6636 35.5039 78.6486 35.3839 78.6186 35.2709C78.5896 35.1579 78.5366 35.0569 78.4626 34.9709C78.3876 34.8839 78.2886 34.8169 78.1666 34.7699C78.0446 34.7219 77.8906 34.6979 77.7056 34.6979C77.4556 34.6979 77.2256 34.7169 77.0166 34.7519C76.8076 34.7879 76.6376 34.8299 76.5066 34.8779L76.3716 33.9999C76.5096 33.9519 76.7096 33.9039 76.9716 33.8569C77.2346 33.8089 77.5146 33.7849 77.8136 33.7849Z" fill="white"/>
<path fill-rule="evenodd" clip-rule="evenodd" d="M82.4592 37.8043C82.7452 37.8043 82.9542 37.7703 83.0852 37.7003C83.2172 37.6323 83.2822 37.5153 83.2822 37.3473C83.2822 37.1923 83.2122 37.0643 83.0722 36.9623C82.9322 36.8613 82.7012 36.7503 82.3782 36.6313C82.1812 36.5603 82.0012 36.4843 81.8372 36.4033C81.6722 36.3233 81.5312 36.2293 81.4122 36.1203C81.2922 36.0143 81.1982 35.8843 81.1292 35.7323C81.0612 35.5793 81.0262 35.3933 81.0262 35.1723C81.0262 34.7423 81.1852 34.4043 81.5012 34.1573C81.8172 33.9083 82.2472 33.7843 82.7902 33.7843C83.0642 33.7843 83.3272 33.8103 83.5782 33.8613C83.8282 33.9113 84.0162 33.9603 84.1422 34.0083L83.9452 34.8863C83.8252 34.8323 83.6732 34.7833 83.4882 34.7383C83.3032 34.6943 83.0882 34.6713 82.8442 34.6713C82.6232 34.6713 82.4442 34.7083 82.3072 34.7833C82.1692 34.8583 82.1012 34.9723 82.1012 35.1273C82.1012 35.2053 82.1142 35.2743 82.1412 35.3333C82.1682 35.3933 82.2142 35.4493 82.2802 35.4993C82.3452 35.5493 82.4322 35.6013 82.5402 35.6513C82.6472 35.7013 82.7782 35.7543 82.9332 35.8083C83.1902 35.9043 83.4082 35.9973 83.5872 36.0893C83.7662 36.1823 83.9142 36.2863 84.0302 36.4033C84.1462 36.5193 84.2312 36.6533 84.2852 36.8013C84.3382 36.9503 84.3652 37.1293 84.3652 37.3383C84.3652 37.7863 84.2002 38.1243 83.8692 38.3553C83.5382 38.5843 83.0642 38.6993 82.4502 38.6993C82.0382 38.6993 81.7072 38.6643 81.4562 38.5963C81.2062 38.5283 81.0292 38.4723 80.9282 38.4313L81.1162 37.5273C81.2772 37.5923 81.4702 37.6553 81.6932 37.7143C81.9172 37.7743 82.1722 37.8043 82.4592 37.8043Z" fill="white"/>
<path fill-rule="evenodd" clip-rule="evenodd" d="M88.5099 35.7809C88.5099 35.6329 88.4889 35.4899 88.4479 35.3559C88.4059 35.2209 88.3439 35.1049 88.2639 35.0069C88.1829 34.9089 88.0849 34.8309 87.9679 34.7739C87.8519 34.7179 87.7139 34.6889 87.5519 34.6889C87.3849 34.6889 87.2389 34.7199 87.1139 34.7829C86.9889 34.8449 86.8829 34.9279 86.7959 35.0289C86.7089 35.1309 86.6419 35.2469 86.5939 35.3789C86.5469 35.5099 86.5139 35.6439 86.4959 35.7809H88.5099ZM85.3679 36.2639C85.3679 35.8529 85.4289 35.4919 85.5519 35.1809C85.6739 34.8709 85.8369 34.6129 86.0389 34.4069C86.2419 34.2019 86.4749 34.0469 86.7379 33.9419C86.9999 33.8379 87.2689 33.7849 87.5429 33.7849C88.1879 33.7849 88.6909 33.9849 89.0519 34.3849C89.4129 34.7849 89.5929 35.3819 89.5929 36.1759C89.5929 36.2349 89.5919 36.3019 89.5889 36.3769C89.5859 36.4509 89.5809 36.5179 89.5749 36.5779H86.4869C86.5169 36.9539 86.6499 37.2449 86.8849 37.4509C87.1209 37.6569 87.4629 37.7599 87.9099 37.7599C88.1729 37.7599 88.4129 37.7359 88.6309 37.6879C88.8489 37.6399 89.0199 37.5899 89.1459 37.5359L89.2889 38.4219C89.2289 38.4519 89.1469 38.4829 89.0429 38.5159C88.9379 38.5489 88.8189 38.5789 88.6849 38.6049C88.5509 38.6329 88.4059 38.6549 88.2509 38.6729C88.0949 38.6899 87.9369 38.6989 87.7759 38.6989C87.3639 38.6989 87.0059 38.6379 86.7019 38.5159C86.3979 38.3929 86.1469 38.2229 85.9499 38.0059C85.7529 37.7879 85.6069 37.5309 85.5109 37.2359C85.4159 36.9399 85.3679 36.6169 85.3679 36.2639Z" fill="white"/>
<path fill-rule="evenodd" clip-rule="evenodd" d="M91.84 36.2291C91.84 36.7061 91.953 37.0811 92.18 37.3521C92.407 37.6241 92.72 37.7591 93.12 37.7591C93.293 37.7591 93.441 37.7511 93.563 37.7371C93.685 37.7221 93.785 37.7061 93.863 37.6881V35.0021C93.767 34.9371 93.64 34.8751 93.483 34.8191C93.324 34.7621 93.155 34.7341 92.977 34.7341C92.583 34.7341 92.295 34.8681 92.113 35.1361C91.931 35.4051 91.84 35.7691 91.84 36.2291ZM94.946 38.4401C94.731 38.5051 94.461 38.5651 94.136 38.6191C93.811 38.6721 93.469 38.6991 93.111 38.6991C92.741 38.6991 92.409 38.6421 92.117 38.5291C91.825 38.4161 91.576 38.2531 91.37 38.0411C91.164 37.8301 91.006 37.5731 90.896 37.2711C90.785 36.9701 90.73 36.6311 90.73 36.2551C90.73 35.8851 90.776 35.5491 90.868 35.2491C90.961 34.9471 91.097 34.6891 91.276 34.4741C91.455 34.2591 91.673 34.0931 91.929 33.9771C92.186 33.8611 92.481 33.8031 92.816 33.8031C93.042 33.8031 93.242 33.8301 93.415 33.8831C93.588 33.9371 93.737 33.9971 93.863 34.0621V31.8161L94.946 31.6361V38.4401Z" fill="white"/>
<path fill-rule="evenodd" clip-rule="evenodd" d="M98.9651 38.5826V32.3796H102.886V33.3376H100.093V34.9216H102.572V35.8796H100.093V38.5826H98.9651Z" fill="white"/>
<path fill-rule="evenodd" clip-rule="evenodd" d="M104.103 38.5827H105.186V33.9007H104.103V38.5827ZM105.302 32.5317C105.302 32.7347 105.237 32.8957 105.106 33.0157C104.974 33.1347 104.819 33.1937 104.64 33.1937C104.455 33.1937 104.297 33.1347 104.166 33.0157C104.034 32.8957 103.969 32.7347 103.969 32.5317C103.969 32.3227 104.034 32.1587 104.166 32.0397C104.297 31.9207 104.455 31.8597 104.64 31.8597C104.819 31.8597 104.974 31.9207 105.106 32.0397C105.237 32.1587 105.302 32.3227 105.302 32.5317Z" fill="white"/>
<path fill-rule="evenodd" clip-rule="evenodd" d="M106.815 34.0533C107.024 33.9933 107.295 33.9373 107.63 33.8833C107.964 33.8293 108.334 33.8033 108.74 33.8033C109.122 33.8033 109.441 33.8553 109.698 33.9593C109.954 34.0643 110.159 34.2103 110.311 34.3983C110.463 34.5863 110.57 34.8133 110.633 35.0783C110.695 35.3443 110.727 35.6353 110.727 35.9503V38.5823H109.644V36.1203C109.644 35.8703 109.628 35.6573 109.595 35.4813C109.562 35.3053 109.508 35.1613 109.434 35.0513C109.359 34.9413 109.257 34.8613 109.129 34.8103C109.001 34.7593 108.844 34.7343 108.659 34.7343C108.522 34.7343 108.378 34.7423 108.23 34.7603C108.08 34.7793 107.97 34.7933 107.898 34.8053V38.5823H106.815V34.0533Z" fill="white"/>
<path fill-rule="evenodd" clip-rule="evenodd" d="M113.95 37.8219C114.284 37.8219 114.537 37.8039 114.711 37.7679V36.5689C114.651 36.5509 114.564 36.5329 114.451 36.5149C114.338 36.4979 114.212 36.4879 114.075 36.4879C113.955 36.4879 113.835 36.4979 113.713 36.5149C113.59 36.5329 113.48 36.5659 113.381 36.6139C113.283 36.6619 113.203 36.7289 113.144 36.8149C113.084 36.9019 113.054 37.0099 113.054 37.1419C113.054 37.3979 113.135 37.5759 113.296 37.6749C113.457 37.7729 113.675 37.8219 113.95 37.8219ZM113.86 33.7849C114.218 33.7849 114.519 33.8299 114.764 33.9199C115.009 34.0089 115.204 34.1339 115.351 34.2959C115.497 34.4569 115.601 34.6519 115.664 34.8819C115.726 35.1109 115.758 35.3639 115.758 35.6379V38.4749C115.591 38.5109 115.339 38.5539 115.001 38.6049C114.664 38.6559 114.284 38.6809 113.86 38.6809C113.58 38.6809 113.323 38.6549 113.091 38.6009C112.858 38.5479 112.659 38.4609 112.495 38.3419C112.331 38.2219 112.202 38.0669 112.11 37.8759C112.017 37.6849 111.971 37.4489 111.971 37.1689C111.971 36.8999 112.024 36.6739 112.128 36.4879C112.232 36.3029 112.374 36.1529 112.554 36.0359C112.732 35.9199 112.94 35.8369 113.176 35.7859C113.411 35.7349 113.658 35.7099 113.914 35.7099C114.033 35.7099 114.158 35.7179 114.29 35.7319C114.421 35.7469 114.561 35.7719 114.711 35.8079V35.6289C114.711 35.5039 114.696 35.3839 114.666 35.2709C114.636 35.1579 114.584 35.0569 114.509 34.9709C114.434 34.8839 114.336 34.8169 114.214 34.7699C114.092 34.7219 113.938 34.6979 113.753 34.6979C113.502 34.6979 113.272 34.7169 113.063 34.7519C112.855 34.7879 112.684 34.8299 112.554 34.8779L112.419 33.9999C112.556 33.9519 112.756 33.9039 113.019 33.8569C113.281 33.8089 113.562 33.7849 113.86 33.7849Z" fill="white"/>
<path fill-rule="evenodd" clip-rule="evenodd" d="M117.333 34.0533C117.541 33.9933 117.813 33.9373 118.147 33.8833C118.481 33.8293 118.852 33.8033 119.257 33.8033C119.64 33.8033 119.958 33.8553 120.215 33.9593C120.472 34.0643 120.676 34.2103 120.829 34.3983C120.981 34.5863 121.088 34.8133 121.151 35.0783C121.213 35.3443 121.245 35.6353 121.245 35.9503V38.5823H120.162V36.1203C120.162 35.8703 120.145 35.6573 120.112 35.4813C120.08 35.3053 120.026 35.1613 119.951 35.0513C119.876 34.9413 119.775 34.8613 119.647 34.8103C119.519 34.7593 119.362 34.7343 119.177 34.7343C119.04 34.7343 118.896 34.7423 118.748 34.7603C118.598 34.7793 118.488 34.7933 118.416 34.8053V38.5823H117.333V34.0533Z" fill="white"/>
<path fill-rule="evenodd" clip-rule="evenodd" d="M122.561 36.2467C122.561 35.9007 122.615 35.5767 122.722 35.2747C122.83 34.9747 122.983 34.7137 123.183 34.4917C123.383 34.2707 123.626 34.0987 123.913 33.9737C124.199 33.8477 124.521 33.7847 124.879 33.7847C125.321 33.7847 125.739 33.8657 126.133 34.0267L125.9 34.9127C125.774 34.8587 125.633 34.8137 125.475 34.7787C125.316 34.7427 125.148 34.7257 124.969 34.7257C124.545 34.7257 124.223 34.8577 124.002 35.1237C123.781 35.3897 123.671 35.7637 123.671 36.2467C123.671 36.7127 123.775 37.0807 123.984 37.3517C124.193 37.6237 124.545 37.7597 125.04 37.7597C125.226 37.7597 125.408 37.7417 125.587 37.7057C125.766 37.6697 125.921 37.6247 126.052 37.5717L126.204 38.4667C126.085 38.5257 125.904 38.5797 125.663 38.6277C125.421 38.6757 125.172 38.6987 124.915 38.6987C124.516 38.6987 124.168 38.6387 123.873 38.5167C123.577 38.3927 123.332 38.2237 123.139 38.0057C122.944 37.7877 122.8 37.5277 122.705 37.2267C122.609 36.9257 122.561 36.5997 122.561 36.2467Z" fill="white"/>
<path fill-rule="evenodd" clip-rule="evenodd" d="M127.305 38.5827H128.388V33.9007H127.305V38.5827ZM128.504 32.5317C128.504 32.7347 128.439 32.8957 128.307 33.0157C128.176 33.1347 128.021 33.1937 127.842 33.1937C127.657 33.1937 127.499 33.1347 127.367 33.0157C127.236 32.8957 127.171 32.7347 127.171 32.5317C127.171 32.3227 127.236 32.1587 127.367 32.0397C127.499 31.9207 127.657 31.8597 127.842 31.8597C128.021 31.8597 128.176 31.9207 128.307 32.0397C128.439 32.1587 128.504 32.3227 128.504 32.5317Z" fill="white"/>
<path fill-rule="evenodd" clip-rule="evenodd" d="M130.017 34.0533C130.226 33.9933 130.497 33.9373 130.832 33.8833C131.166 33.8293 131.536 33.8033 131.942 33.8033C132.324 33.8033 132.643 33.8553 132.899 33.9593C133.156 34.0643 133.36 34.2103 133.513 34.3983C133.665 34.5863 133.772 34.8133 133.835 35.0783C133.897 35.3443 133.929 35.6353 133.929 35.9503V38.5823H132.846V36.1203C132.846 35.8703 132.83 35.6573 132.797 35.4813C132.764 35.3053 132.71 35.1613 132.636 35.0513C132.561 34.9413 132.459 34.8613 132.331 34.8103C132.203 34.7593 132.046 34.7343 131.861 34.7343C131.724 34.7343 131.58 34.7423 131.432 34.7603C131.282 34.7793 131.172 34.7933 131.1 34.8053V38.5823H130.017V34.0533Z" fill="white"/>
<path fill-rule="evenodd" clip-rule="evenodd" d="M136.355 36.1207C136.355 36.5807 136.455 36.9167 136.655 37.1287C136.855 37.3407 137.113 37.4457 137.429 37.4457C137.602 37.4457 137.765 37.4227 137.917 37.3747C138.069 37.3267 138.193 37.2697 138.289 37.2047V34.7787C138.211 34.7607 138.115 34.7447 138.002 34.7287C137.889 34.7147 137.745 34.7067 137.572 34.7067C137.178 34.7067 136.877 34.8367 136.668 35.0967C136.459 35.3557 136.355 35.6977 136.355 36.1207ZM139.372 38.1087C139.372 38.8537 139.182 39.3997 138.803 39.7467C138.424 40.0927 137.844 40.2667 137.062 40.2667C136.775 40.2667 136.497 40.2417 136.225 40.1937C135.954 40.1457 135.708 40.0837 135.487 40.0067L135.684 39.0847C135.868 39.1617 136.079 39.2247 136.314 39.2717C136.55 39.3197 136.805 39.3437 137.08 39.3437C137.516 39.3437 137.826 39.2547 138.011 39.0747C138.196 38.8957 138.289 38.6307 138.289 38.2787V38.0997C138.181 38.1527 138.039 38.2067 137.863 38.2607C137.687 38.3137 137.486 38.3417 137.259 38.3417C136.96 38.3417 136.688 38.2937 136.44 38.1977C136.192 38.1027 135.98 37.9627 135.804 37.7767C135.628 37.5927 135.491 37.3607 135.393 37.0837C135.294 36.8067 135.245 36.4847 135.245 36.1207C135.245 35.7807 135.297 35.4677 135.401 35.1817C135.506 34.8947 135.658 34.6497 135.858 34.4477C136.058 34.2447 136.301 34.0867 136.587 33.9737C136.874 33.8597 137.199 33.8037 137.563 33.8037C137.916 33.8037 138.25 33.8297 138.566 33.8837C138.882 33.9367 139.151 33.9937 139.372 34.0537V38.1087Z" fill="white"/>
</g>
</svg>
