<?xml version="1.0" encoding="utf-8"?>
<!-- Generator: Adobe Illustrator 23.1.1, SVG Export Plug-In . SVG Version: 6.00 Build 0)  -->
<svg version="1.1" xmlns="http://www.w3.org/2000/svg" xmlns:xlink="http://www.w3.org/1999/xlink" x="0px" y="0px"
	 viewBox="0 0 940.6 268.8" style="enable-background:new 0 0 940.6 268.8;" xml:space="preserve">
<style type="text/css">
	.st0{fill:#FFFFFF;}
</style>
<g id="Layer_1">
	<g>
		<path class="st0" d="M167.5,123C161.6,113.1,85.6,4.8,85.6,4.8S14.9,113.1,8.9,123c-6.4,10.7-6.9,23.7-1.8,31.8
			c4.5,7.2,20,20.2,22.7,25.2c4.3,8.1-12.8,25.8-3.5,46.6c5.3,11.8,16.6,17.3,24.1,17.2c19.7-0.3,27.2-0.1,27.2-0.1s0.2,10-0.2,13.4
			c-0.5,5-2.6,7.6-2.6,7.6H87h11.1c0,0-2.7-2.3-3.2-7.2c-0.3-3.1-0.2-13.9-0.2-13.9s9.2,0.2,29,0.4c7.5,0.1,19.3-5.5,24.6-17.3
			c9.4-20.8-6.6-39.4-3.3-46.6c2.3-5.2,20.5-20.6,23.5-25.3C172.9,147.8,173.9,133.7,167.5,123z M78.2,220.5c0,3.4-1.5,7.5-6.1,7.5
			c-4,0-15.7,0-22.2-0.1s-11-8.3-10.9-19.1s8.4-20.2,5-32.1C41,166,26.9,155.6,23.4,150.1c-3.5-5.4-3.6-13.2-1.6-17.5
			c3-6.4,51.8-80.6,53.9-83.8s2.5-0.5,2.5,5.9S78.2,220.5,78.2,220.5z M151,150.1c-3.7,5.4-19.1,15.5-22.2,27.4
			c-3.1,12,6.1,20.4,6.2,31.3c0.1,10.9-4.8,19-11.3,19.1c-6.5,0.1-20.8,0-24.7-0.2c-3.8-0.2-4.9-4.8-4.9-7.2c0,0,0-159.4,0-165.8
			s-0.1-9.1,2-5.9c2.1,3.2,52.9,77.7,56.6,83.8C156.3,138.6,154.9,144.5,151,150.1z"/>
		<g>
			<path class="st0" d="M209,94.8h15.6v85.7H209V94.8z"/>
			<path class="st0" d="M241.9,118c2.9-0.8,6.6-1.6,11.3-2.4c4.6-0.7,9.7-1.1,15.3-1.1c5.3,0,9.7,0.7,13.2,2.2
				c3.5,1.4,6.4,3.5,8.5,6.1s3.6,5.7,4.5,9.4c0.9,3.7,1.3,7.7,1.3,12.1v36.4h-15v-34c0-3.5-0.2-6.4-0.7-8.8
				c-0.5-2.4-1.2-4.4-2.2-5.9c-1-1.5-2.4-2.6-4.2-3.3c-1.8-0.7-3.9-1.1-6.5-1.1c-1.9,0-3.9,0.1-5.9,0.4c-2.1,0.2-3.6,0.5-4.6,0.6
				v52.2h-15L241.9,118L241.9,118z"/>
			<path class="st0" d="M332.9,114.3c4.9,0,9.1,0.6,12.5,1.9c3.4,1.2,6.1,3,8.1,5.2c2,2.2,3.5,4.9,4.3,8.1c0.9,3.2,1.3,6.7,1.3,10.4
				v39.2c-2.3,0.5-5.8,1.1-10.5,1.8c-4.7,0.7-9.9,1.1-15.8,1.1c-3.9,0-7.4-0.4-10.6-1.1c-3.2-0.7-6-1.9-8.2-3.6
				c-2.3-1.6-4-3.8-5.3-6.4c-1.3-2.6-1.9-5.9-1.9-9.8c0-3.7,0.7-6.8,2.2-9.4c1.4-2.6,3.4-4.6,5.9-6.2c2.5-1.6,5.3-2.8,8.6-3.5
				c3.3-0.7,6.7-1.1,10.2-1.1c1.6,0,3.4,0.1,5.2,0.3c1.8,0.2,3.8,0.6,5.8,1.1v-2.5c0-1.7-0.2-3.4-0.6-4.9c-0.4-1.6-1.1-2.9-2.2-4.1
				c-1-1.2-2.4-2.1-4.1-2.8c-1.7-0.7-3.8-1-6.4-1c-3.5,0-6.6,0.2-9.5,0.7c-2.9,0.5-5.2,1.1-7.1,1.7l-1.9-12.1c1.9-0.7,4.7-1.3,8.3-2
				C324.9,114.6,328.8,114.3,332.9,114.3z M334.2,170c4.6,0,8.1-0.2,10.5-0.7v-16.6c-0.8-0.2-2-0.5-3.6-0.7
				c-1.6-0.2-3.3-0.4-5.2-0.4c-1.6,0-3.3,0.1-5,0.4c-1.7,0.2-3.2,0.7-4.6,1.4c-1.4,0.7-2.5,1.6-3.3,2.8c-0.8,1.2-1.2,2.7-1.2,4.5
				c0,3.5,1.1,6,3.3,7.4C327.4,169.4,330.4,170,334.2,170z"/>
			<path class="st0" d="M399.1,165.8c2.7,0,5-0.2,6.7-0.7c1.8-0.5,3.2-1.1,4.3-1.9c1.1-0.8,1.8-1.7,2.2-2.8c0.4-1.1,0.6-2.3,0.6-3.6
				c0-2.8-1.3-5.1-4-7c-2.6-1.9-7.2-3.9-13.6-6c-2.8-1-5.6-2.1-8.4-3.4c-2.8-1.3-5.3-2.9-7.5-4.8c-2.2-1.9-4-4.3-5.4-7
				c-1.4-2.8-2.1-6.1-2.1-10.1c0-4,0.7-7.5,2.2-10.7c1.5-3.2,3.6-5.9,6.3-8.1c2.7-2.2,6-3.9,9.9-5.1c3.9-1.2,8.2-1.8,13.1-1.8
				c5.8,0,10.8,0.6,15,1.9c4.2,1.2,7.7,2.6,10.4,4.1l-5.6,15.2c-2.4-1.2-5.1-2.3-8-3.3c-2.9-0.9-6.5-1.4-10.6-1.4
				c-4.6,0-7.9,0.6-10,1.9c-2,1.3-3,3.2-3,5.9c0,1.6,0.4,2.9,1.1,4c0.7,1.1,1.8,2,3.2,2.9c1.4,0.9,2.9,1.7,4.7,2.4
				c1.8,0.7,3.7,1.4,5.9,2.2c4.5,1.6,8.3,3.3,11.6,4.9c3.3,1.6,6,3.5,8.2,5.6c2.2,2.1,3.8,4.7,4.9,7.5c1.1,2.9,1.6,6.4,1.6,10.5
				c0,8-2.8,14.2-8.4,18.6c-5.6,4.4-14.1,6.6-25.4,6.6c-3.8,0-7.2-0.2-10.3-0.7c-3.1-0.5-5.8-1-8.1-1.7s-4.4-1.4-6.1-2.1
				c-1.7-0.7-3.1-1.4-4.3-2.1l5.4-15.3c2.6,1.4,5.7,2.7,9.5,3.8C389.1,165.3,393.7,165.8,399.1,165.8z"/>
			<path class="st0" d="M503.1,180.6c-1-3-2-6-3.1-9.2c-1.1-3.1-2.2-6.3-3.3-9.4h-33.5c-1.1,3.1-2.2,6.3-3.3,9.4
				c-1.1,3.1-2.1,6.2-3,9.2h-20c3.2-9.2,6.3-17.8,9.2-25.6c2.9-7.8,5.7-15.2,8.5-22.1c2.8-6.9,5.5-13.5,8.2-19.7
				c2.7-6.2,5.5-12.3,8.4-18.2h18.3c2.8,5.9,5.6,12,8.3,18.2c2.7,6.2,5.5,12.8,8.3,19.7c2.8,6.9,5.6,14.3,8.5,22.1
				c2.9,7.8,6,16.4,9.2,25.6L503.1,180.6L503.1,180.6z M480,114.3c-0.4,1.2-1.1,2.9-1.9,5.1c-0.8,2.1-1.8,4.6-2.8,7.4
				c-1.1,2.8-2.2,5.9-3.6,9.3c-1.3,3.4-2.6,6.9-4,10.6h24.5c-1.3-3.7-2.6-7.3-3.8-10.7c-1.2-3.4-2.4-6.5-3.5-9.3
				c-1.1-2.8-2.1-5.3-2.9-7.4C481.2,117.2,480.5,115.5,480,114.3z"/>
			<path class="st0" d="M533.1,180.6V94.8h57.4V111h-38.1V129h33.9v16.2h-33.9v35.4L533.1,180.6L533.1,180.6z"/>
			<path class="st0" d="M601.7,180.6V94.8h57.9V111H621v16.8h34.3v15.8H621v20.7h41.4v16.2L601.7,180.6L601.7,180.6z"/>
		</g>
		<g>
			<path class="st0" d="M703.1,180.3V95h57.1v16.1h-37.9V129H756v16.1h-33.7v35.2H703.1z"/>
			<path class="st0" d="M802.1,181.4c-4.7,0-9.3-0.1-14-0.4c-4.6-0.3-9.5-1-14.5-2V96.3c3.9-0.7,8.2-1.3,12.9-1.7s9-0.6,13-0.6
				c5.4,0,10.4,0.4,14.9,1.2c4.6,0.8,8.5,2.1,11.7,4c3.3,1.9,5.8,4.4,7.7,7.4c1.8,3.1,2.8,6.9,2.8,11.4c0,6.8-3.3,12.2-9.8,16.1
				c5.4,2.1,9.1,4.8,11.1,8.4c2,3.5,3,7.5,3,11.9c0,8.9-3.3,15.7-9.8,20.2C824.6,179.1,814.9,181.4,802.1,181.4z M792.4,128.5h9.3
				c5.9,0,10.1-0.8,12.7-2.3c2.5-1.5,3.8-4,3.8-7.3c0-3.4-1.3-5.9-3.9-7.3c-2.6-1.4-6.5-2.1-11.6-2.1c-1.6,0-3.4,0-5.3,0.1
				c-1.9,0-3.6,0.1-5,0.3V128.5z M792.4,143.1v22c1.4,0.2,2.9,0.3,4.6,0.4c1.6,0.1,3.4,0.1,5.4,0.1c5.7,0,10.4-0.8,13.9-2.5
				c3.5-1.6,5.3-4.7,5.3-9.1c0-3.9-1.5-6.7-4.4-8.4c-3-1.7-7.2-2.5-12.7-2.5H792.4z"/>
			<path class="st0" d="M912.3,180.3c-0.9-3-2-6-3.1-9.1s-2.2-6.2-3.3-9.3h-33.3c-1.1,3.1-2.2,6.2-3.2,9.4c-1.1,3.1-2.1,6.2-3,9.1
				h-19.9c3.2-9.2,6.2-17.7,9.1-25.5c2.9-7.8,5.7-15.1,8.5-22c2.8-6.9,5.5-13.4,8.1-19.6c2.7-6.2,5.5-12.2,8.3-18.1h18.2
				c2.8,5.9,5.6,12,8.3,18.1c2.7,6.2,5.5,12.7,8.2,19.6c2.8,6.9,5.6,14.2,8.5,22c2.9,7.8,5.9,16.3,9.1,25.5H912.3z M889.2,114.3
				c-0.4,1.2-1.1,2.9-1.9,5.1c-0.8,2.1-1.8,4.6-2.8,7.4c-1.1,2.8-2.2,5.9-3.5,9.2c-1.3,3.4-2.6,6.9-4,10.6h24.4
				c-1.3-3.7-2.6-7.2-3.8-10.6s-2.4-6.4-3.5-9.2c-1.1-2.8-2.1-5.3-2.9-7.4C890.4,117.2,889.7,115.6,889.2,114.3z"/>
		</g>
		<g>
			<path class="st0" d="M207.9,254.8v-48.5h30.7v7.5h-21.8v12.4h19.4v7.5h-19.4v21.1H207.9z"/>
			<path class="st0" d="M278.9,236.5c0,2.9-0.4,5.5-1.3,7.9c-0.8,2.4-2,4.4-3.6,6.1c-1.5,1.7-3.4,3-5.6,3.9
				c-2.2,0.9-4.6,1.4-7.2,1.4s-5-0.5-7.1-1.4c-2.1-0.9-4-2.2-5.5-3.9c-1.5-1.7-2.7-3.7-3.6-6.1c-0.9-2.4-1.3-5-1.3-7.9
				s0.4-5.5,1.3-7.9c0.9-2.4,2.1-4.4,3.6-6.1c1.6-1.7,3.4-3,5.6-3.9c2.1-0.9,4.5-1.4,7.1-1.4s4.9,0.5,7.1,1.4s4,2.2,5.6,3.9
				c1.5,1.7,2.7,3.7,3.6,6.1C278.5,230.9,278.9,233.6,278.9,236.5z M270.2,236.5c0-3.6-0.8-6.5-2.3-8.6c-1.6-2.1-3.7-3.2-6.5-3.2
				c-2.8,0-5,1.1-6.5,3.2c-1.6,2.1-2.3,5-2.3,8.6c0,3.7,0.8,6.6,2.3,8.8s3.7,3.2,6.5,3.2c2.8,0,5-1.1,6.5-3.2
				S270.2,240.2,270.2,236.5z"/>
			<path class="st0" d="M309.2,225.8c-0.7-0.2-1.7-0.5-2.9-0.7c-1.2-0.3-2.7-0.4-4.3-0.4c-0.9,0-1.9,0.1-3,0.3
				c-1.1,0.2-1.8,0.3-2.2,0.5v29.3h-8.5v-34.9c1.6-0.6,3.7-1.2,6.1-1.7c2.5-0.5,5.2-0.8,8.2-0.8c0.6,0,1.2,0,2,0.1
				c0.7,0.1,1.5,0.2,2.2,0.3c0.7,0.1,1.5,0.3,2.2,0.4c0.7,0.2,1.3,0.3,1.7,0.5L309.2,225.8z"/>
			<path class="st0" d="M315.1,236.7c0-3.2,0.5-6,1.4-8.5c1-2.4,2.2-4.4,3.8-6.1c1.6-1.6,3.4-2.8,5.5-3.6c2.1-0.8,4.2-1.2,6.3-1.2
				c5,0,9,1.6,11.8,4.7c2.8,3.1,4.2,7.8,4.2,14c0,0.5,0,1,0,1.6c0,0.6-0.1,1.1-0.1,1.6h-24.1c0.2,2.9,1.3,5.2,3.1,6.8
				c1.8,1.6,4.5,2.4,8,2.4c2.1,0,3.9-0.2,5.6-0.6c1.7-0.4,3-0.8,4-1.2l1.1,6.9c-0.5,0.2-1.1,0.5-1.9,0.7c-0.8,0.3-1.8,0.5-2.8,0.7
				s-2.2,0.4-3.4,0.5c-1.2,0.1-2.5,0.2-3.7,0.2c-3.2,0-6-0.5-8.4-1.4s-4.3-2.3-5.9-4c-1.5-1.7-2.7-3.7-3.4-6
				C315.5,242,315.1,239.4,315.1,236.7z M339.7,232.9c0-1.2-0.2-2.3-0.5-3.3c-0.3-1-0.8-2-1.4-2.7c-0.6-0.8-1.4-1.4-2.3-1.8
				c-0.9-0.4-2-0.7-3.3-0.7c-1.3,0-2.5,0.2-3.4,0.7c-1,0.5-1.8,1.1-2.5,1.9c-0.7,0.8-1.2,1.7-1.6,2.7c-0.4,1-0.6,2.1-0.8,3.2H339.7z
				"/>
			<path class="st0" d="M355.7,236.5c0-2.7,0.4-5.2,1.3-7.6c0.8-2.4,2-4.4,3.6-6.1c1.6-1.7,3.5-3.1,5.7-4.1c2.2-1,4.8-1.5,7.6-1.5
				c3.5,0,6.7,0.6,9.8,1.9l-1.8,6.9c-1-0.4-2.1-0.8-3.3-1c-1.2-0.3-2.6-0.4-4-0.4c-3.3,0-5.8,1-7.6,3.1c-1.7,2.1-2.6,5-2.6,8.8
				c0,3.6,0.8,6.5,2.5,8.6c1.6,2.1,4.4,3.2,8.3,3.2c1.4,0,2.9-0.1,4.3-0.4c1.4-0.3,2.6-0.6,3.6-1l1.2,7c-0.9,0.5-2.3,0.9-4.2,1.3
				c-1.9,0.4-3.8,0.6-5.8,0.6c-3.1,0-5.8-0.5-8.2-1.4c-2.3-1-4.2-2.3-5.7-4c-1.5-1.7-2.6-3.7-3.4-6.1
				C356.1,241.8,355.7,239.3,355.7,236.5z"/>
			<path class="st0" d="M403.6,217.3c2.8,0,5.2,0.4,7.1,1c1.9,0.7,3.4,1.7,4.6,2.9s2,2.8,2.5,4.6c0.5,1.8,0.7,3.8,0.7,5.9V254
				c-1.3,0.3-3.3,0.6-5.9,1c-2.6,0.4-5.6,0.6-8.9,0.6c-2.2,0-4.2-0.2-6-0.6c-1.8-0.4-3.4-1.1-4.7-2c-1.3-0.9-2.3-2.1-3-3.6
				c-0.7-1.5-1.1-3.3-1.1-5.5c0-2.1,0.4-3.9,1.2-5.3c0.8-1.4,1.9-2.6,3.3-3.5c1.4-0.9,3-1.6,4.9-2c1.8-0.4,3.8-0.6,5.8-0.6
				c0.9,0,1.9,0.1,2.9,0.2c1,0.1,2.1,0.3,3.3,0.6v-1.4c0-1-0.1-1.9-0.3-2.8c-0.2-0.9-0.6-1.7-1.2-2.3c-0.6-0.7-1.4-1.2-2.3-1.6
				c-1-0.4-2.2-0.6-3.6-0.6c-2,0-3.8,0.1-5.4,0.4c-1.6,0.3-3,0.6-4,1l-1-6.9c1.1-0.4,2.6-0.7,4.7-1.1
				C399.1,217.5,401.3,217.3,403.6,217.3z M404.3,248.9c2.6,0,4.6-0.1,6-0.4v-9.4c-0.5-0.1-1.1-0.3-2-0.4c-0.9-0.1-1.9-0.2-2.9-0.2
				c-0.9,0-1.9,0.1-2.8,0.2c-1,0.1-1.8,0.4-2.6,0.8c-0.8,0.4-1.4,0.9-1.9,1.6c-0.5,0.7-0.7,1.5-0.7,2.6c0,2,0.6,3.4,1.9,4.2
				C400.4,248.5,402.1,248.9,404.3,248.9z"/>
			<path class="st0" d="M438.6,248.7c2.2,0,3.9-0.3,4.9-0.8c1-0.5,1.5-1.5,1.5-2.8c0-1.2-0.5-2.2-1.6-3c-1.1-0.8-2.9-1.7-5.4-2.6
				c-1.5-0.6-3-1.2-4.2-1.8c-1.3-0.6-2.4-1.4-3.3-2.2c-0.9-0.8-1.7-1.9-2.2-3c-0.5-1.2-0.8-2.6-0.8-4.4c0-3.4,1.2-6,3.7-7.9
				c2.5-1.9,5.8-2.9,10.1-2.9c2.1,0,4.2,0.2,6.2,0.6s3.4,0.8,4.4,1.2l-1.5,6.9c-0.9-0.4-2.1-0.8-3.6-1.2c-1.4-0.3-3.1-0.5-5-0.5
				c-1.7,0-3.1,0.3-4.2,0.9c-1.1,0.6-1.6,1.5-1.6,2.7c0,0.6,0.1,1.1,0.3,1.6c0.2,0.5,0.6,0.9,1.1,1.3c0.5,0.4,1.2,0.8,2,1.2
				c0.8,0.4,1.9,0.8,3.1,1.2c2,0.7,3.7,1.5,5.1,2.2c1.4,0.7,2.6,1.5,3.5,2.5s1.6,1.9,2,3.1c0.4,1.2,0.6,2.6,0.6,4.2
				c0,3.5-1.3,6.1-3.9,7.9s-6.3,2.7-11.1,2.7c-3.2,0-5.8-0.3-7.8-0.8s-3.3-1-4.1-1.3l1.5-7.1c1.3,0.5,2.8,1,4.5,1.5
				C434.4,248.5,436.4,248.7,438.6,248.7z"/>
			<path class="st0" d="M461.6,208.5l8.5-1.4v11.1h13v7.1h-13v14.9c0,2.9,0.5,5,1.4,6.3s2.5,1.9,4.8,1.9c1.5,0,2.9-0.2,4.1-0.5
				c1.2-0.3,2.1-0.6,2.8-0.9l1.4,6.7c-1,0.4-2.3,0.9-3.8,1.3c-1.6,0.4-3.5,0.7-5.6,0.7c-2.6,0-4.8-0.3-6.5-1s-3.1-1.7-4.2-3
				s-1.7-2.9-2.2-4.8c-0.4-1.9-0.6-4-0.6-6.5V208.5z"/>
			<path class="st0" d="M523.9,255.4c-2.6,0-5.2-0.1-7.8-0.2c-2.6-0.2-4.9-0.5-6.9-1V207c1-0.2,2.1-0.4,3.3-0.5
				c1.2-0.2,2.4-0.3,3.6-0.4c1.2-0.1,2.4-0.2,3.6-0.2c1.2,0,2.3-0.1,3.4-0.1c2.9,0,5.7,0.2,8.2,0.7c2.5,0.4,4.7,1.2,6.5,2.2
				c1.8,1,3.3,2.4,4.3,4.1c1,1.7,1.5,3.8,1.5,6.2c0,2.3-0.5,4.2-1.6,5.9c-1.1,1.6-2.6,2.9-4.6,3.9c2.9,1,5.1,2.4,6.5,4.3
				c1.4,1.9,2.1,4.3,2.1,7.3c0,5-1.8,8.7-5.5,11.2C537,254.1,531.4,255.4,523.9,255.4z M518,226h6.2c3.4,0,6-0.5,7.9-1.4
				c1.9-1,2.9-2.7,2.9-5.1c0-2.3-1-4-3-5c-2-1-4.6-1.5-7.7-1.5c-1.4,0-2.6,0-3.6,0.1c-1,0-1.9,0.1-2.7,0.2V226z M518,233v14.8
				c1,0.1,2,0.2,3.1,0.2c1.1,0,2.1,0.1,3.1,0.1c1.8,0,3.5-0.1,5.1-0.4c1.6-0.2,2.9-0.6,4.1-1.2c1.1-0.6,2.1-1.4,2.7-2.3
				c0.7-1,1-2.2,1-3.8c0-2.8-1-4.7-3-5.7c-2-1.1-4.8-1.6-8.3-1.6H518z"/>
			<path class="st0" d="M567.7,217.3c2.8,0,5.2,0.4,7.1,1c1.9,0.7,3.4,1.7,4.6,2.9s2,2.8,2.5,4.6c0.5,1.8,0.7,3.8,0.7,5.9V254
				c-1.3,0.3-3.3,0.6-5.9,1c-2.6,0.4-5.6,0.6-8.9,0.6c-2.2,0-4.2-0.2-6-0.6c-1.8-0.4-3.4-1.1-4.7-2c-1.3-0.9-2.3-2.1-3-3.6
				c-0.7-1.5-1.1-3.3-1.1-5.5c0-2.1,0.4-3.9,1.2-5.3c0.8-1.4,1.9-2.6,3.3-3.5c1.4-0.9,3-1.6,4.9-2c1.8-0.4,3.8-0.6,5.8-0.6
				c0.9,0,1.9,0.1,2.9,0.2c1,0.1,2.1,0.3,3.3,0.6v-1.4c0-1-0.1-1.9-0.3-2.8c-0.2-0.9-0.6-1.7-1.2-2.3c-0.6-0.7-1.4-1.2-2.3-1.6
				c-1-0.4-2.2-0.6-3.6-0.6c-2,0-3.8,0.1-5.4,0.4c-1.6,0.3-3,0.6-4,1l-1-6.9c1.1-0.4,2.6-0.7,4.7-1.1
				C563.1,217.5,565.3,217.3,567.7,217.3z M568.4,248.9c2.6,0,4.6-0.1,6-0.4v-9.4c-0.5-0.1-1.1-0.3-2-0.4c-0.9-0.1-1.9-0.2-2.9-0.2
				c-0.9,0-1.9,0.1-2.8,0.2c-1,0.1-1.8,0.4-2.6,0.8c-0.8,0.4-1.4,0.9-1.9,1.6c-0.5,0.7-0.7,1.5-0.7,2.6c0,2,0.6,3.4,1.9,4.2
				C564.5,248.5,566.2,248.9,568.4,248.9z"/>
			<path class="st0" d="M602.7,248.7c2.2,0,3.9-0.3,4.9-0.8c1-0.5,1.5-1.5,1.5-2.8c0-1.2-0.5-2.2-1.6-3c-1.1-0.8-2.9-1.7-5.4-2.6
				c-1.5-0.6-3-1.2-4.2-1.8c-1.3-0.6-2.4-1.4-3.3-2.2c-0.9-0.8-1.7-1.9-2.2-3c-0.5-1.2-0.8-2.6-0.8-4.4c0-3.4,1.2-6,3.7-7.9
				c2.5-1.9,5.8-2.9,10.1-2.9c2.1,0,4.2,0.2,6.2,0.6s3.4,0.8,4.4,1.2l-1.5,6.9c-0.9-0.4-2.1-0.8-3.6-1.2c-1.4-0.3-3.1-0.5-5-0.5
				c-1.7,0-3.1,0.3-4.2,0.9c-1.1,0.6-1.6,1.5-1.6,2.7c0,0.6,0.1,1.1,0.3,1.6c0.2,0.5,0.6,0.9,1.1,1.3c0.5,0.4,1.2,0.8,2,1.2
				c0.8,0.4,1.9,0.8,3.1,1.2c2,0.7,3.7,1.5,5.1,2.2c1.4,0.7,2.6,1.5,3.5,2.5s1.6,1.9,2,3.1c0.4,1.2,0.6,2.6,0.6,4.2
				c0,3.5-1.3,6.1-3.9,7.9s-6.3,2.7-11.1,2.7c-3.2,0-5.8-0.3-7.8-0.8s-3.3-1-4.1-1.3l1.5-7.1c1.3,0.5,2.8,1,4.5,1.5
				C598.4,248.5,600.4,248.7,602.7,248.7z"/>
			<path class="st0" d="M624.1,236.7c0-3.2,0.5-6,1.4-8.5c1-2.4,2.2-4.4,3.8-6.1c1.6-1.6,3.4-2.8,5.5-3.6c2.1-0.8,4.2-1.2,6.3-1.2
				c5,0,9,1.6,11.8,4.7c2.8,3.1,4.2,7.8,4.2,14c0,0.5,0,1,0,1.6c0,0.6-0.1,1.1-0.1,1.6h-24.1c0.2,2.9,1.3,5.2,3.1,6.8
				c1.8,1.6,4.5,2.4,8,2.4c2.1,0,3.9-0.2,5.6-0.6c1.7-0.4,3-0.8,4-1.2l1.1,6.9c-0.5,0.2-1.1,0.5-1.9,0.7c-0.8,0.3-1.8,0.5-2.8,0.7
				s-2.2,0.4-3.4,0.5c-1.2,0.1-2.5,0.2-3.7,0.2c-3.2,0-6-0.5-8.4-1.4s-4.3-2.3-5.9-4c-1.5-1.7-2.7-3.7-3.4-6
				C624.5,242,624.1,239.4,624.1,236.7z M648.7,232.9c0-1.2-0.2-2.3-0.5-3.3c-0.3-1-0.8-2-1.4-2.7c-0.6-0.8-1.4-1.4-2.3-1.8
				c-0.9-0.4-2-0.7-3.3-0.7c-1.3,0-2.5,0.2-3.4,0.7c-1,0.5-1.8,1.1-2.5,1.9c-0.7,0.8-1.2,1.7-1.6,2.7c-0.4,1-0.6,2.1-0.8,3.2H648.7z
				"/>
			<path class="st0" d="M697.7,253.7c-1.7,0.5-3.8,1-6.3,1.4c-2.5,0.4-5.2,0.6-8,0.6c-2.9,0-5.5-0.4-7.8-1.3
				c-2.3-0.9-4.2-2.2-5.8-3.8c-1.6-1.7-2.8-3.7-3.7-6c-0.9-2.4-1.3-5-1.3-7.9c0-2.9,0.4-5.5,1.1-7.9c0.7-2.4,1.8-4.4,3.2-6.1
				c1.4-1.7,3.1-3,5.1-3.9c2-0.9,4.3-1.4,6.9-1.4c1.8,0,3.3,0.2,4.7,0.6c1.4,0.4,2.5,0.9,3.5,1.4v-17.6l8.5-1.4V253.7z M673.4,236.4
				c0,3.7,0.9,6.7,2.7,8.8c1.8,2.1,4.2,3.2,7.3,3.2c1.4,0,2.5-0.1,3.5-0.2c1-0.1,1.7-0.2,2.3-0.4v-21c-0.7-0.5-1.7-1-3-1.4
				c-1.2-0.4-2.6-0.7-4-0.7c-3.1,0-5.3,1.1-6.8,3.2C674.1,230,673.4,232.8,673.4,236.4z"/>
			<path class="st0" d="M758.7,254.8c-0.7-1.9-1.3-3.8-2-5.7c-0.7-1.9-1.4-3.8-2-5.7h-20.5c-0.7,2-1.3,3.9-2,5.8
				c-0.7,1.9-1.3,3.8-2,5.6H721c1.8-5.2,3.5-10,5.2-14.4c1.6-4.4,3.2-8.5,4.8-12.5c1.6-3.9,3.1-7.7,4.7-11.2s3.1-7,4.8-10.5h8.4
				c1.6,3.5,3.2,7,4.8,10.5s3.1,7.3,4.7,11.2c1.6,3.9,3.2,8.1,4.8,12.5c1.7,4.4,3.4,9.2,5.2,14.4H758.7z M744.4,215.7
				c-1.1,2.5-2.3,5.5-3.7,9c-1.4,3.5-2.8,7.4-4.3,11.6h16c-1.5-4.2-2.9-8-4.3-11.6C746.6,221,745.4,218.1,744.4,215.7z"/>
			<path class="st0" d="M771.5,236.5c0-2.7,0.4-5.2,1.3-7.6c0.8-2.4,2-4.4,3.6-6.1c1.6-1.7,3.5-3.1,5.7-4.1c2.2-1,4.8-1.5,7.6-1.5
				c3.5,0,6.7,0.6,9.8,1.9l-1.8,6.9c-1-0.4-2.1-0.8-3.3-1c-1.2-0.3-2.6-0.4-4-0.4c-3.3,0-5.8,1-7.6,3.1c-1.7,2.1-2.6,5-2.6,8.8
				c0,3.6,0.8,6.5,2.5,8.6c1.6,2.1,4.4,3.2,8.3,3.2c1.4,0,2.9-0.1,4.3-0.4c1.4-0.3,2.6-0.6,3.6-1l1.2,7c-0.9,0.5-2.3,0.9-4.2,1.3
				c-1.9,0.4-3.8,0.6-5.8,0.6c-3.1,0-5.8-0.5-8.2-1.4c-2.3-1-4.2-2.3-5.7-4c-1.5-1.7-2.6-3.7-3.4-6.1
				C771.9,241.8,771.5,239.3,771.5,236.5z"/>
			<path class="st0" d="M806.8,208.5l8.5-1.4v11.1h13v7.1h-13v14.9c0,2.9,0.5,5,1.4,6.3s2.5,1.9,4.8,1.9c1.5,0,2.9-0.2,4.1-0.5
				c1.2-0.3,2.1-0.6,2.8-0.9l1.4,6.7c-1,0.4-2.3,0.9-3.8,1.3c-1.6,0.4-3.5,0.7-5.6,0.7c-2.6,0-4.8-0.3-6.5-1s-3.1-1.7-4.2-3
				s-1.8-2.9-2.2-4.8c-0.4-1.9-0.6-4-0.6-6.5V208.5z"/>
			<path class="st0" d="M846.5,207.5c0,1.6-0.5,2.8-1.5,3.8s-2.2,1.4-3.6,1.4c-1.4,0-2.7-0.5-3.7-1.4c-1-0.9-1.5-2.2-1.5-3.8
				c0-1.6,0.5-2.9,1.5-3.8c1-0.9,2.3-1.4,3.7-1.4c1.4,0,2.6,0.5,3.6,1.4S846.5,205.9,846.5,207.5z M845.6,254.8h-8.5v-36.6h8.5
				V254.8z"/>
			<path class="st0" d="M890.2,236.5c0,2.9-0.4,5.5-1.3,7.9c-0.8,2.4-2,4.4-3.6,6.1c-1.5,1.7-3.4,3-5.6,3.9
				c-2.2,0.9-4.6,1.4-7.2,1.4s-5-0.5-7.1-1.4c-2.1-0.9-4-2.2-5.5-3.9c-1.5-1.7-2.7-3.7-3.6-6.1c-0.9-2.4-1.3-5-1.3-7.9
				s0.4-5.5,1.3-7.9c0.9-2.4,2.1-4.4,3.6-6.1c1.6-1.7,3.4-3,5.6-3.9c2.1-0.9,4.5-1.4,7.1-1.4s4.9,0.5,7.1,1.4s4,2.2,5.6,3.9
				c1.5,1.7,2.7,3.7,3.6,6.1C889.7,230.9,890.2,233.6,890.2,236.5z M881.5,236.5c0-3.6-0.8-6.5-2.3-8.6c-1.6-2.1-3.7-3.2-6.5-3.2
				c-2.8,0-5,1.1-6.5,3.2c-1.6,2.1-2.3,5-2.3,8.6c0,3.7,0.8,6.6,2.3,8.8s3.7,3.2,6.5,3.2c2.8,0,5-1.1,6.5-3.2
				S881.5,240.2,881.5,236.5z"/>
			<path class="st0" d="M899.5,219.4c1.6-0.5,3.8-0.9,6.4-1.3c2.6-0.4,5.5-0.6,8.7-0.6c3,0,5.5,0.4,7.5,1.2c2,0.8,3.6,2,4.8,3.4
				c1.2,1.5,2,3.2,2.5,5.3c0.5,2.1,0.7,4.4,0.7,6.8v20.6h-8.5v-19.2c0-2-0.1-3.6-0.4-5c-0.3-1.4-0.7-2.5-1.3-3.4
				c-0.6-0.9-1.4-1.5-2.4-1.9c-1-0.4-2.2-0.6-3.7-0.6c-1.1,0-2.2,0.1-3.4,0.2c-1.2,0.1-2,0.3-2.6,0.4v29.5h-8.5V219.4z"/>
		</g>
	</g>
</g>
<g id="Layer_2">
</g>
<g id="Layer_3">
</g>
</svg>
