<svg xmlns="http://www.w3.org/2000/svg" width="22" height="20" fill="none"><rect id="backgroundrect" width="100%" height="100%" x="0" y="0" fill="none" stroke="none" class="" style=""/>









<mask id="mask0" mask-type="alpha" maskUnits="userSpaceOnUse" x="83" y="5" width="12" height="10">
<path fill-rule="evenodd" clip-rule="evenodd" d="M83.4934 5.30469H94.034V14.6837H83.4934V5.30469Z" fill="white" id="svg_1"/>
</mask>

<g class="currentLayer" style=""><title>Layer 1</title><path fill-rule="evenodd" clip-rule="evenodd" d="M13.00459988079071,7.940150765075684 C13.259599880790711,6.9101507650756835 13.403599880790711,5.900150765075684 13.32159988079071,5.139150765075684 C13.115599880790711,3.2101507650756838 11.65759988079071,2.7671507650756837 10.81659988079071,2.768150765075684 C9.94162988079071,2.768150765075684 8.689629880790712,3.0911507650756835 8.32962988079071,5.133150765075683 C8.017629880790711,6.898150765075684 8.91662988079071,9.380150765075683 10.24459988079071,11.685110765075684 C10.24459988079071,11.685110765075684 10.096599880790711,12.025110765075684 9.71062988079071,12.573110765075684 C9.151629880790711,13.364110765075683 8.70262988079071,13.799110765075683 8.70262988079071,13.799110765075683 C6.982629880790711,10.832110765075683 5.6306298807907105,8.237150765075684 5.645629880790711,6.315150765075684 C5.679629880790711,1.3751507650756838 8.449629880790711,-0.016847634924316426 10.81659988079071,0.000152412075683594 C13.18459988079071,0.0151523650756836 16.01559988079071,1.5791507650756835 16.01559988079071,6.273150765075684 C16.01559988079071,6.775150765075684 15.83459988079071,7.6311507650756845 15.70759988079071,8.198150765075683 C15.525599880790711,8.183150765075684 15.03459988079071,8.100150765075684 14.503599880790711,8.049150765075684 C13.682599880790711,7.972150765075684 13.00459988079071,7.940150765075684 13.00459988079071,7.940150765075684 z" fill="#FCB040" id="svg_2" class=""/><path fill-rule="evenodd" clip-rule="evenodd" d="M6.475829880790711,11.495410765075684 C5.455829880790711,11.788410765075684 4.50882988079071,12.171410765075684 3.8908298807907107,12.621410765075684 C2.3228298807907106,13.764410765075684 2.6678298807907113,15.248410765075684 3.0898298807907105,15.976410765075684 C3.5278298807907102,16.734410765075683 4.433829880790711,17.656410765075684 6.382829880790711,16.947410765075684 C8.06682988079071,16.335410765075682 9.76683988079071,14.316410765075684 11.098799880790711,12.013410765075683 C11.098799880790711,12.013410765075683 11.46779988079071,11.971410765075683 12.133799880790711,12.032410765075683 C13.098799880790711,12.120410765075684 13.700799880790711,12.291410765075684 13.700799880790711,12.291410765075684 C11.99079988079071,15.266410765075683 10.418799880790711,17.732410765075684 8.74782988079071,18.682410765075684 C4.45082988079071,21.122410765075685 1.8628298807907107,19.418410765075684 0.6918348807907108,17.360410765075684 C-0.47816511920928956,15.302410765075683 -0.5391651192092898,12.068410765075683 3.5248298807907106,9.722370765075684 C3.9608298807907105,9.470370765075684 4.792829880790711,9.200370765075684 5.346829880790711,9.026370765075683 C5.4248298807907105,9.191370765075684 5.5978298807907105,9.658370765075684 5.81982988079071,10.142410765075685 C6.16382988079071,10.892410765075685 6.475829880790711,11.495410765075684 6.475829880790711,11.495410765075684 z" fill="#FCB040" id="svg_3" class=""/><path fill-rule="evenodd" clip-rule="evenodd" d="M12.96649988079071,15.282510765075683 C13.73049988079071,16.018510765075682 14.53449988079071,16.647510765075683 15.23349988079071,16.957510765075682 C17.008499880790712,17.743510765075683 18.11949988079071,16.701510765075685 18.540499880790712,15.973510765075684 C18.97749988079071,15.216510765075684 19.322499880790712,13.969510765075684 17.735499880790712,12.636510765075684 C16.36249988079071,11.485510765075684 13.76449988079071,11.020510765075684 11.10349988079071,11.019510765075683 C11.10349988079071,11.019510765075683 10.88249988079071,10.720510765075684 10.60149988079071,10.113510765075684 C10.195499880790711,9.233540765075684 10.04349988079071,8.626540765075683 10.04349988079071,8.626540765075683 C13.47349988079071,8.620540765075683 16.39649988079071,8.747540765075684 18.05449988079071,9.720540765075684 C22.31549988079071,12.221510765075683 22.133499880790712,15.315510765075684 20.93749988079071,17.358510765075685 C19.74049988079071,19.401510765075685 16.97049988079071,21.070510765075685 12.90549988079071,18.723510765075684 C12.46949988079071,18.472510765075683 11.81949988079071,17.886510765075684 11.39249988079071,17.493510765075683 C11.49649988079071,17.344510765075682 11.81349988079071,16.960510765075682 12.122499880790711,16.52551076507568 C12.599499880790711,15.853510765075683 12.96649988079071,15.282510765075683 12.96649988079071,15.282510765075683 z" fill="#FCB040" id="svg_4" class=""/></g></svg>